<svg xmlns="http://www.w3.org/2000/svg" viewBox="0 0 482.64 419.73"><defs><style>.cls-1{fill:#b2abdf;}.cls-2{fill:#8f88b3;}.cls-3{fill:#9f98c7;}.cls-4{fill:#ff96aa;}.cls-15,.cls-25,.cls-5{fill:none;stroke-miterlimit:10;}.cls-15,.cls-5{stroke:#0d0000;}.cls-5{stroke-width:0.75px;}.cls-6{fill:#fef2fe;}.cls-7{fill:#302162;}.cls-8{fill:#251d47;}.cls-9{fill:#352967;}.cls-10{fill:#40337b;}.cls-11{fill:#35190d;}.cls-12{fill:#070019;}.cls-13{fill:#ea7e8e;}.cls-14{fill:#f4f4f4;}.cls-15{stroke-width:0.5px;}.cls-16{fill:#0d0000;}.cls-17{fill:#f6def8;}.cls-18{fill:#db4987;}.cls-19{fill:#c9437c;}.cls-20{fill:#fda520;}.cls-21{fill:#f4b6ab;}.cls-22{fill:#e8a499;}.cls-23{fill:#fdd5cd;}.cls-24{fill:#f5b6ad;}.cls-25{stroke:#070019;stroke-width:2px;}.cls-26{fill:#3e3177;}.cls-27{font-size:21.64px;}.cls-27,.cls-31,.cls-33{fill:#fff;}.cls-27,.cls-31{font-family:OpenSans-Bold, OpenSans Bold;font-weight:700;}.cls-28{letter-spacing:-0.02em;}.cls-29{letter-spacing:0em;}.cls-30{fill:#ffdd84;}.cls-31{font-size:18.8px;}.cls-32{letter-spacing:-0.02em;}</style></defs><g id="Layer_2" data-name="Layer 2"><g id="OBJECTS"><ellipse class="cls-1" cx="241.32" cy="409.07" rx="241.32" ry="10.66"/><path class="cls-2" d="M301.62,61.66a21.09,21.09,0,0,0,1.32-5.52c.23-1.37.24-6.7.21-8.75,0-1.66-3-3.59-4.08-3.62l-.08,0V26.42h-95.1V43.78h0c-1.09,0-4.06,2-4.08,3.62,0,2,0,7.38.21,8.75.1.66.27,2,.59,3.36h0s-7.78,59.33-4.55,63.91c1,1.39,3.06,4.49,5.59,8.29l-1.34.85,24.9,38.17c-.81,15.64-1.36,37.12-1.59,47.51h-.13v18.62H279.1V218.23H279c-.15-10.84-.51-33.75-1.06-49.38l23.68-36.3-1.35-.85c2.53-3.8,4.62-6.9,5.6-8.29C308.74,119.36,303,72.36,301.62,61.66ZM286,122.59S275.6,133.8,269.2,136.34c-1.78.71-11.6,3.27-11.6,3.27l.54-14.9c2.18,1.19,5.45-.2,4.8-3a2.71,2.71,0,0,0-.66-1.29c.35-3.18,1.57-14.6,1.4-15.38s-3.94-1.25-3.94-1.25,3.64-3.23,2.59-3.67-4.79,1.79-4.79,1.79-.75-3.41-1.29-3.34-.8,3-.8,3-9.54-5-10.44-4.6-1.49,3.22-1.49,3.22-10.25-2.61-10.89-1.74,1.65,6,1.65,6-4.74,4.72-4.1,7.59c.68,3.07,3.59,5.94,5.64,7.64a2.23,2.23,0,0,0-1.29,1.7,2.73,2.73,0,0,0,2.55,3.36v.29c-.12,2.74,1.78,9.53,7.49,11.32l-.05,3.74h0s-10-3.08-11.8-3.79c-6.4-2.54-16.77-13.75-16.77-13.75l-.08,0L209,113.45c-1.25-3.38-1.53-28.26-1.59-42h87.1c-.06,13.7-.34,38.58-1.58,42l-6.87,9.19Z"/><path class="cls-3" d="M231.75,89.57l-.35-.17.35.17s-1.23-3.29-6.77-5.51V57.91H110.36V83.67c-6.42,2.21-7.8,5.9-7.8,5.9l.36-.17-.36.17c-.82.35-.39,6.08-.06,7.82s3.12,4.34,3.12,4.34,12.55,59.4,14.91,61c1.66,1.14,17.23.67,26.25.29v0l1.07,3.08c.25.76.5,1.57.74,2.41-1.24,1.38-2.44,2.7-2.95,3.22-1.25,1.27,1.86,10,5.18,14.55l-.89,21.91s-3,11.52-4.46,18.56h0a31.35,31.35,0,0,0-.73,4.8c0,3,5.17,130.18,6.27,157.36h-.08l.29,5.08h1.19l-3,5.67c-1,1.64-1.74,2.82-1.74,2.82-4-.29-6.05,3.76-6.05,3.76h14.24c1.28-.84,2-3.54,2.41-6.06.45,2.9.66,6.06.66,6.06h1.74a93.43,93.43,0,0,0-1.84-11.6.7.7,0,0,0,0-.14h0a3.6,3.6,0,0,0-.16-.5h1.61l.26-5.08h-.07c.86-22.4,4.36-113.17,6.26-156.92H168c1.9,43.75,5.4,134.52,6.26,156.93h-.07l.27,5.08h1.66c-.06.17-.12.34-.16.5h0a.7.7,0,0,0,0,.14,95.72,95.72,0,0,0-1.84,11.6h1.74s.21-3.16.66-6.06c.43,2.52,1.13,5.22,2.41,6.06h14.24s-2-4.05-6.05-3.76c0,0-.77-1.18-1.74-2.82l-3-5.67h1.13l.3-5.08h-.09c1.1-27.18,6.25-154.37,6.28-157.36a28.41,28.41,0,0,0-.62-4.23h0c-1.38-7-4.58-19.13-4.58-19.13h0l-.89-21.91c3.32-4.55,6.43-13.28,5.19-14.55-.26-.26-.64-.68-1.08-1.19.36-1.51.82-3.07,1.26-4.43h0l1-3v0c9.12.35,21.94.63,23.45-.4,2.35-1.62,14.9-61,14.9-61s2.8-2.59,3.13-4.34S232.58,89.92,231.75,89.57ZM110.36,85.88l-.49.2.49-.24Zm51.2,63.91H128.43L116.11,113H152.7c-4,5.2-6.91,13.64-5.11,35.18,0,0,6.24-1.07,14-1.69Zm44.33,0h-33l-.24-3.7a44.5,44.5,0,0,1,11.84,1.48s3.33-24.83-.9-34.56h34.58Z"/><path class="cls-3" d="M252.73,149.37c.94.1,1,2.61,1,2.61s1.67-.33,1.92.43a2.63,2.63,0,0,1-.17,1.64s1.8-1.19,2.18-.32-1.86,2.81-1.86,2.81,3.55,3.31,1.75,6.24a.43.43,0,0,1,.5.52l0,.06,21.16,25.93a.41.41,0,0,1,.19,0c1.05-1.8,12.55-21.57,14.37-24.43,4-6.27,17-10,17-10h0C316.51,152.65,323,151,323,151l.57-5.63.18-1.87a23.06,23.06,0,0,1-2.83-5.71c-2.84.42-6-3.09-5.27-6.45a3.51,3.51,0,0,1,1.1-2.09c-.36-3.57-1-10-.75-11.67a5.52,5.52,0,0,1,2.61-3.69s-4.54-6.71-3.52-7.85,5.75.83,5.75.83-4.64-5.82-1.28-5.71c1.95.06,7.39,2.85,14.44,5.82,8.32,3.5,5.94,6.91,5.94,6.91,1.89-.69,4.38-.47,4.82,2.54.31,2.2-.37,10.48-.64,13.48a4.5,4.5,0,0,1,.54,1.43c.7,3.4-2.5,7-5.37,6.44a19.83,19.83,0,0,1-3.72,6.5l.41,4.91.16,1.81,38.28-32.83h0l6.21-5.79c0-.08.05-.17.09-.26s0,0,0,0l11.14-38.23,1.32-7.66a5.83,5.83,0,0,1-.64-2,6.65,6.65,0,0,1,0-2.32v0c0-.12,0-.24.07-.36a7.73,7.73,0,0,1,.43-1.41s-2.83-.82-2.83-1.78c0-.6.83-.69,1.45-.68a5.45,5.45,0,0,1,.58,0h.09a2.58,2.58,0,0,1-.81-1.43c0-.4.35-.7.76-.9a4.32,4.32,0,0,1,.82-.3s-.82-2.05-.24-2.7a.35.35,0,0,1,.13-.11,3.17,3.17,0,0,1,1.51.07l.7.14.28.07v-.05c-.28-.77-.58-1.65-.8-2.44l-36.56-6.6L365.67,0l37.74,6.81.92-5.32,2.19.39-.91,5.33,36.7,6.62-7.48,43.44-36.71-6.62-.05.3c1.62,1.82,3.18,3.79,3.18,3.79.71.46,1.13.94,1,1.38-.19.82-.53,2.16-.86,3.41l-.82,3.07s-3,47.46-4.32,52.69c-.47,1.95-5.28,8.72-11.13,16.46l3.51,4.44s-22.13,29.43-31,38.28c0,.19,0,.37,0,.55a.44.44,0,0,1-.61.38c-.12.68-.24,1.35-.38,2-.59,3-1.27,6.22-1.89,9.25l-.21,1c-.1.46-.19.92-.27,1.37,0,.13-.06.26-.08.39-.22,1.15-.43,2.27-.6,3.33a.29.29,0,0,0,0,.09.06.06,0,0,1,0,0c-.1.55-.18,1.09-.26,1.62,0,0,0,.06,0,.09s0,.3-.06.45c-.16,1.15-.27,2.21-.32,3.15a17.35,17.35,0,0,0,0,1.75l0,.62c.12,2.5.32,5.6.56,9,.06.77.12,1.55.18,2.35.21,2.9.45,6,.69,9,.06.79.13,1.57.19,2.36.24,3.09.47,6.15.69,9,.06.81.11,1.59.18,2.36.25,3.5.45,6.62.55,9,0,.89.07,1.69.08,2.36,0,.26,0,.51,0,.74,0,.85-.71,1.62-2,2.31l12.85,128.36c.62-.21,1.22-.44,1.8-.7l.72,9.18a19.48,19.48,0,0,1-6.38,2.51l.68,10s20.8,3.73,20.58,6-29.75,0-29.75,0,0-6,1.79-6l-2.32-9.45a36.25,36.25,0,0,1-5.48-.9l-1.51-9.37L326.61,252.62l-.78,0-19.46,59.76,9.13,69.31h0l.27,2,0,0,.83,7.75c-.61.34-1.21.65-1.8.92l1,8.05c1.78,0,1.78,6,1.78,6s-29.52,2.22-29.74,0,20.57-6,20.57-6l-1.85-6.08a16.75,16.75,0,0,1-7.27-1.29l-1.91-10.24,1.76.15c-3.47-14.8-15.7-67.91-13.83-74.2,1.58-5.28,9.76-41.28,14.2-61A4.93,4.93,0,0,1,299,245c0-.73-.06-1.52-.05-2.37,0-2.55.18-5.57.45-8.87,0-.77.12-1.56.2-2.36.25-2.82.55-5.81.87-8.85l.24-2.36c.3-3,.6-5.95.87-8.86.07-.78.14-1.57.2-2.35.12-1.38.22-2.74.31-4.06,0-.71.09-1.4.13-2.09.06-.93.1-1.84.13-2.73s0-1.59,0-2.34c0-.52,0-1,0-1.53,0-1.69-.08-3.54-.15-5.48-3.82,9.9-7.49,17.37-7.49,17.37l-15-18.11h0L293,206.15s-8.54,11.55-14.48,8.48C273.79,212.2,250,162,250,162s-3-3.67-4.12-5.2S251.79,149.27,252.73,149.37Z"/><path class="cls-4" d="M184.13,118.28c.45.14,2.74.58,2.79.6s-2.73-3.95-1.27-4.41c.64-.21,5.12,5.46,5.74,6.44.4.61-.19,3.35-.19,3.35l-6.48,3.1s-6.55-4.11-7-4.52c-.63-.54-4.16-5-3.72-5.44s3.54,1.93,3.54,1.93-4.4-4.3-3.42-5.33c.36-.37,4.24,2.24,4.24,2.24s-4.29-3.57-3.39-4.48c.51-.52,5.12,4,5.12,4s-3.19-3.75-2.5-4.17S183,117.93,184.13,118.28Z"/><polygon class="cls-4" points="184.72 127.36 190.79 138.62 197.19 136.11 191.21 124.26 184.72 127.36"/><line class="cls-5" x1="184.72" y1="127.36" x2="187.4" y2="127.65"/><polygon class="cls-6" points="195.05 128.86 192.58 124.73 183.72 129.74 186.1 133.52 195.05 128.86"/><path class="cls-7" d="M273.84,126s-.76-12-.65-14.15,2.91-2,2.91-2a3.48,3.48,0,0,1,.91-5c3-2.15,8.36,2.58,13.42,1.72a4.89,4.89,0,0,1,5.93,3.87,4,4,0,0,1,3.06.57c1.52,1-.13,15.09-.13,15.09Z"/><path class="cls-4" d="M328.59,379.48s2.21,13.48,4.73,16.26c0,0-3,6-8.09,4.65s-6-4-6-4L317,382.82Z"/><path class="cls-8" d="M347.8,398.75c-1.63.17-13.57-3.77-14.54-5.49s-7.18,2-7.41,2.31.94,3.14,2.13,4.43c0,0-6.46-1-8.73-3.6,0,0-4,5.32-1.4,9.91h30.38c2.59,0,6.57-3.4,7.11-4.21s-1.29-3.82-2.26-4.54S350.17,398.52,347.8,398.75Z"/><path class="cls-5" d="M331.28,400.39a9.53,9.53,0,0,1-4.82,1.2c-2.52-.16-8.14-3.64-8.14-3.64"/><path class="cls-5" d="M354,398.61s-4.22,2.39-5.82,3.35S328,400,328,400"/><path class="cls-9" d="M339.13,396.29s-5.28,5.74-5.6,5.87a28.3,28.3,0,0,1-4.44-1.26c-.22-.11,5.49-6.62,5.49-6.62S338.42,396,339.13,396.29Z"/><path class="cls-4" d="M267.92,379.48s-.2,13.48-2.71,16.26c0,0,3,6,8.08,4.65s6-4,6-4l.26-13.58Z"/><path class="cls-8" d="M250.72,398.75c1.63.17,13.58-3.77,14.55-5.49s7.17,2,7.41,2.31-.95,3.14-2.14,4.43c0,0,6.47-1,8.73-3.6,0,0,4,5.32,1.4,9.91H250.29c-2.59,0-6.57-3.4-7.11-4.21s1.29-3.82,2.26-4.54S248.35,398.52,250.72,398.75Z"/><path class="cls-5" d="M267.24,400.39a9.53,9.53,0,0,0,4.82,1.2c2.52-.16,8.14-3.64,8.14-3.64"/><path class="cls-5" d="M244.49,398.61s4.22,2.39,5.82,3.35,20.23-2,20.23-2"/><path class="cls-9" d="M259.39,396.29s5.28,5.74,5.6,5.87a28.73,28.73,0,0,0,4.45-1.26c.21-.11-5.5-6.62-5.5-6.62S260.1,396,259.39,396.29Z"/><path class="cls-10" d="M279.42,388.26c3-15.69,5.38-116.44,5.38-116.44h3.63L317.26,390s8.64-1.35,13.43-4c1.53-.86-18.84-128.57-20.51-147.45l-.85-12.25-52.12-.87v13.31c-1.17,3.51,6.69,145,8,148.5C265.21,387.26,275.3,388.87,279.42,388.26Z"/><path class="cls-5" d="M263,236.86s2.31,18.55-6,20.11"/><path class="cls-5" d="M278.89,232.74s3,38.25,8.73,39.08l-2.28-39"/><polygon class="cls-11" points="257.21 232.98 257.21 238.76 310.18 238.57 309.12 232.79 257.21 232.98"/><path class="cls-7" d="M273.52,121.42c0-.54,25.91-1.72,25.9-.5-.06,4.7-.27,12-1.16,11.54-2.83,9-17.14,9.76-22.79.45C274.48,131.29,273.8,127.67,273.52,121.42Z"/><path class="cls-4" d="M279.3,139.88v13.29s5.37,6.15,13,0V140.4Z"/><path class="cls-12" d="M279.3,139.88v6.77s3.33,3.07,6.49,3.07,6.49-3.73,6.49-3.73V140.4Z"/><path class="cls-4" d="M295.91,119.73c-1.18-3.55-4.9-3.89-9.69-3.89s-8.52.34-9.7,3.89.44,14.26,1.12,17,4.86,8.17,8.68,8.17,8-5.47,8.68-8.17S297.09,123.27,295.91,119.73Z"/><path class="cls-13" d="M287.06,143.71c0-.3-1.66-.22-1.56,0S287,144.06,287.06,143.71Z"/><path class="cls-13" d="M294.12,133.08c.05-.73-3.65-.85-3.69,0S294.05,134.21,294.12,133.08Z"/><path class="cls-13" d="M278.08,133.12c0-.72,3.67-.77,3.69,0S278.13,134.25,278.08,133.12Z"/><path class="cls-14" d="M283.9,137.49H289s-.58,4.78-2.73,4.78C283.9,142.27,283.9,137.49,283.9,137.49Z"/><path class="cls-15" d="M286.28,129.14a52.13,52.13,0,0,0-1,5.65c.14.46,2.07.13,2.07.13"/><path class="cls-16" d="M283.51,128.94c0,.71-.31,1.28-.7,1.28s-.69-.57-.7-1.27.31-1.28.7-1.28S283.51,128.24,283.51,128.94Z"/><path class="cls-16" d="M289,128.94c0,.71.31,1.28.69,1.28s.7-.57.7-1.27-.31-1.28-.69-1.28S289,128.24,289,128.94Z"/><path class="cls-4" d="M276.71,126.4s-4.49-1.87-4.77,2.06,2.06,5.52,5.61,4.12Z"/><path class="cls-15" d="M273.19,129.31s.71-1.11,1.39-.91A6,6,0,0,1,277,131"/><path class="cls-4" d="M295.39,126.48s4.49-1.87,4.77,2.06-2.05,5.52-5.61,4.12Z"/><path class="cls-15" d="M299.42,129.31s-.71-1.11-1.4-.91a6,6,0,0,0-2.43,2.63"/><path class="cls-17" d="M311.63,202.11c-.11,14.6.93,27.42.48,28.07a10.25,10.25,0,0,1-3,2.61l-50.84.19c-1.92,0-3.85-.94-4.28-2.61-.18-.72,1.42-12.87,1.59-27.19.25-19.1-.21-43.17-.09-44,.22-1.5,22.64-5.82,23.8-6,0,0,5.17,6.11,13,0,0,0,19.18,5.65,20.13,6.06C312.9,159.44,311.77,182.38,311.63,202.11Z"/><path class="cls-5" d="M275.78,215a104.06,104.06,0,0,0,22.3-23.49"/><path class="cls-5" d="M283.51,221.1s11.65-13.84,14.77-21"/><line class="cls-5" x1="254.1" y1="228.4" x2="312.22" y2="229.27"/><path class="cls-9" d="M279.3,153.17l-7.38,92s-15.6,2.56-21.19,0c0,0,4.59-84.75,5.11-87.46C256,156.89,279.3,153.17,279.3,153.17Z"/><path class="cls-5" d="M310.34,170.6s-.42,24.07,2.12,37.42"/><path class="cls-7" d="M279.11,124.93c-.1-.9,5.88-1.23,5.68.13S279.23,126.12,279.11,124.93Z"/><path class="cls-7" d="M294.12,124.93c.1-.9-5.89-1.23-5.69.13S294,126.12,294.12,124.93Z"/><line class="cls-5" x1="280.39" y1="271.82" x2="296.36" y2="271.82"/><line class="cls-5" x1="284.8" y1="271.82" x2="280.39" y2="274.59"/><line class="cls-5" x1="288.43" y1="271.82" x2="293.71" y2="276.67"/><path class="cls-5" d="M303.43,235.65s-.63,23.84,9.13,21.58"/><polygon class="cls-18" points="285.24 155.86 281.95 159.46 283.5 160.94 280.6 210.14 284.8 217.38 290.4 210.59 286.47 161.37 288.43 159.26 285.24 155.86"/><path class="cls-5" d="M271.07,154.53l-4.94,24,4.67,3.72-3.24,4.34s1.37,21.57,6.63,30.25"/><path class="cls-9" d="M292.28,153.17l2.21,92.44s15.45,2.58,21.18,0c0,0-2.77-83.68-3.26-86.38C312.15,157.82,292.28,153.17,292.28,153.17Z"/><polygon class="cls-8" points="314.55 212.65 314.99 225.45 294.25 235.65 293.91 221.48 314.55 212.65"/><path class="cls-5" d="M300.22,155.32l3.8,23.37-4.88,3.74,3,4.36s-2.58,21.68-8.33,30.39"/><path class="cls-13" d="M282.62,226.91s-2.65-.86-3.25-1-4.15,4.44-4.24,5.16.66,1.58,3.41-.47A23.46,23.46,0,0,0,282.62,226.91Z"/><path class="cls-4" d="M288.62,227s-5.95-1.06-6.75-1.15-5.6,4.61-5.42,5.6,4.09.44,5.38-2.18c0,0,3.28,6.35,9.73,2Z"/><path class="cls-7" d="M278.08,114s.25,3.87,2.66,5.16,11.32,1.54,12.46,1.27,0-2.28,0-2.28,2.59,2.58,4.31,1.29S294.33,107.94,278.08,114Z"/><path class="cls-9" d="M257.44,157c-9.08,1.56-40.74,9.42-40.74,9.42l-21.44-39.32-11,5.9s19.92,47.82,21.64,49.82,52.95-1.44,52.95-1.44S264.33,155.86,257.44,157Z"/><polygon class="cls-6" points="290.34 221.9 286.24 224.43 291.06 232.17 294.81 229.74 290.34 221.9"/><path class="cls-9" d="M312.41,159.23c4.65,1.14,17.39,43.79,16.36,45.79-2,3.93-35.28,26.28-35.28,26.28l-4.87-8.93L314,203.21S303.41,157,312.41,159.23Z"/><line class="cls-5" x1="288.62" y1="222.37" x2="320.04" y2="197.8"/><path class="cls-5" d="M310.27,165.37s-2,3.14-.07,12,5.21,24,5.21,24"/><path class="cls-8" d="M254.27,181.72l5.38,0a7,7,0,0,1-5.66,6.19Z"/><line class="cls-5" x1="216.7" y1="166.46" x2="214.74" y2="170.55"/><path class="cls-19" d="M286.47,161.37s-1,9.13-1,16c0,2-.7,40-.7,40l5.6-6.78Z"/><path class="cls-6" d="M279.3,146.65s-1.64.6-2.52,1-2.24,4-2.57,4.48,4.36,6.59,6.39,8.84l4.61-5.08-5.91-2.69Z"/><path class="cls-6" d="M292.28,146s1.54,1.09,2.27,1.58,2,4.07,2.38,4.53-4.25,7.12-6.53,9.27l-5.16-5.51,7-2.69Z"/><path class="cls-5" d="M179,121.41a12.23,12.23,0,0,1,2.87-3.15"/><path class="cls-5" d="M316,384.68s11.92-3.23,14.28-5.2"/><path class="cls-5" d="M264.61,382.08s12.62,1.18,15.59.14"/><polygon class="cls-20" points="277.23 232.98 276.73 240.01 289.84 240.01 289.84 232.86 277.23 232.98"/><line class="cls-5" x1="186.06" y1="137.44" x2="197.2" y2="131.44"/><line class="cls-5" x1="291.56" y1="220.08" x2="297.26" y2="228.74"/><rect class="cls-21" x="175.25" y="229.68" width="92.2" height="10.78"/><polygon class="cls-22" points="312.87 248.67 267.45 240.46 267.45 229.68 312.87 237.89 312.87 248.67"/><rect class="cls-23" x="185.78" y="240.46" width="81.67" height="165.85"/><polygon class="cls-24" points="267.45 240.46 302.33 246.77 302.33 406.31 267.45 406.31 267.45 240.46"/><polygon class="cls-12" points="202 229.68 202 223.12 246.11 223.12 266.11 226.73 266.11 229.68 202 229.68"/><path class="cls-12" d="M229.82,202a4.55,4.55,0,0,0-5.48-1.91c-2.85,1.66-3.23,3.65-3.23,3.65l1.44,2.48,1.44,2.48a6.72,6.72,0,0,0,4.76-1A4.55,4.55,0,0,0,229.82,202Z"/><path class="cls-25" d="M209.7,223.08l.06-7.92a1.86,1.86,0,0,1,.88-1.57l10.6-6.52"/><path class="cls-12" d="M219.15,205.46s-7,4.06-5.65,6.43,8.33-1.71,8.33-1.71Z"/><polygon class="cls-6" points="220.38 200.18 223.56 205.67 219.64 207.94 216.58 202.67 220.38 200.18"/><polygon class="cls-17" points="226.75 211.16 223.56 205.67 219.64 207.94 222.7 213.22 226.75 211.16"/><path class="cls-12" d="M263.19,202a4.54,4.54,0,0,0-5.47-1.91c-2.86,1.66-3.23,3.65-3.23,3.65l1.43,2.48,1.44,2.48a6.74,6.74,0,0,0,4.77-1A4.55,4.55,0,0,0,263.19,202Z"/><path class="cls-25" d="M243.08,223.08l0-7.92a1.85,1.85,0,0,1,.89-1.57l10.59-6.52"/><path class="cls-12" d="M252.53,205.46s-7,4.06-5.65,6.43,8.33-1.71,8.33-1.71Z"/><polygon class="cls-6" points="253.75 200.18 256.93 205.67 253.01 207.94 249.95 202.67 253.75 200.18"/><polygon class="cls-17" points="260.12 211.16 256.93 205.67 253.01 207.94 256.07 213.22 260.12 211.16"/><path class="cls-4" d="M56.39,370.86,51.12,391a8.7,8.7,0,0,0,10.23,2.59l7.56-19.43Z"/><path class="cls-6" d="M30.54,397.3s-3.59.26-4.72.16-1.48,2.38-1.5,3.65,2.55,4.57,8.28,5.09,19.53-1,21.22-1.06,6.23.39,7.85.34a30.14,30.14,0,0,0,4.92-.69c.49-.16.79-3.84,0-4.52Z"/><path class="cls-9" d="M51.86,388.4a7.41,7.41,0,0,1,.52,3s2.69,2.39,5.09,2.24a4.73,4.73,0,0,0,4-2.18c.54-.87.72-1.79,1.69-2.25,0,0,4.51,6,3.4,11L32.8,401.39s-2.12-2.12-2.26-4.09c0,0,9.26-2.62,12.09-3.79A70.47,70.47,0,0,0,51.86,388.4Z"/><path class="cls-9" d="M67,401.46s-8.81.69-11.42.64-7.65.56-9.87.59l0,.79c2.23,0,7.27-.64,9.88-.59s11.42-.64,11.42-.64Z"/><path class="cls-5" d="M52.38,391.42s-7.24,4.66-9.3,5.21S31,398.81,31,398.81"/><path class="cls-5" d="M55.2,400.65s.53-2.09,1.3-2.68c.26-.2,4.25-.06,5-.35s3.92-4.55,3.92-4.55"/><path class="cls-5" d="M51.05,392.26s4,3.05,5.7,3.06,4.52-1,5.16-1.91A32.93,32.93,0,0,0,63.69,390"/><line class="cls-5" x1="46.56" y1="390.54" x2="48.16" y2="392.36"/><line class="cls-5" x1="45.05" y1="391.53" x2="46.65" y2="393.34"/><line class="cls-5" x1="43.39" y1="392.52" x2="44.99" y2="394.33"/><path class="cls-5" d="M25.28,397.63a12.63,12.63,0,0,0,2.13,3.24c.89.63,5.39.52,5.39.52"/><path class="cls-4" d="M103.71,388.4l.81-9.93-11.11-.4-.78,17.05S106.78,397.85,103.71,388.4Z"/><path class="cls-6" d="M125,397.3s3.59.26,4.72.16,1.48,2.38,1.5,3.65-2.55,4.57-8.28,5.09-19.53-1-21.22-1.06-6.23.39-7.85.34a30.14,30.14,0,0,1-4.92-.69c-.49-.16-.79-3.84,0-4.52Z"/><path class="cls-9" d="M103.71,388.4a7.41,7.41,0,0,0-.52,3s-2.69,2.39-5.09,2.24a4.73,4.73,0,0,1-4-2.18c-.54-.87-.72-1.79-1.69-2.25,0,0-4.51,6-3.4,11l33.78,1.12s2.12-2.12,2.26-4.09c0,0-9.26-2.62-12.09-3.79A70.47,70.47,0,0,1,103.71,388.4Z"/><path class="cls-9" d="M88.55,401.46s8.81.69,11.42.64,7.65.56,9.87.59l0,.79c-2.23,0-7.27-.64-9.88-.59s-11.42-.64-11.42-.64Z"/><path class="cls-5" d="M103.19,391.42s7.24,4.66,9.3,5.21,12.11,2.18,12.11,2.18"/><path class="cls-5" d="M100.37,400.65s-.53-2.09-1.3-2.68c-.26-.2-4.25-.06-5-.35s-3.92-4.55-3.92-4.55"/><path class="cls-5" d="M104.52,392.26s-4,3.05-5.7,3.06-4.52-1-5.16-1.91A32.93,32.93,0,0,1,91.88,390"/><line class="cls-5" x1="109.01" y1="390.54" x2="107.41" y2="392.36"/><line class="cls-5" x1="110.52" y1="391.53" x2="108.92" y2="393.34"/><line class="cls-5" x1="112.18" y1="392.52" x2="110.58" y2="394.33"/><path class="cls-5" d="M130.29,397.63a12.63,12.63,0,0,1-2.13,3.24c-.89.63-5.39.52-5.39.52"/><path class="cls-13" d="M53.18,55.65S61.44,50.7,62.8,51s-4.14,6.21-4.14,6.21Z"/><path class="cls-13" d="M157,52.13s-7.64-5.86-9-5.71,3.4,6.64,3.4,6.64Z"/><rect class="cls-1" x="56.27" y="38.73" width="95.8" height="42.5"/><path class="cls-4" d="M143.63,59c-.25-1,4.22-1.34,4.22-1.34s-3-.4-3.3-1.25S148,54.64,148,54.64s-3.66-2.19-2.87-2.94,13.29-.49,13.31,1.66-.18,7.49-.18,7.49l-4.72,7.58c-5.52-2.08-4.29-8.3-4.29-8.3S143.88,60.08,143.63,59Z"/><path class="cls-4" d="M151.38,120,152,66.89c-3.65-1.34-2.69-6.76-2.69-6.76s-5.39-.05-5.64-1.09,4.22-1.34,4.22-1.34-3-.4-3.3-1.25S148,54.64,148,54.64s-3.66-2.19-2.87-2.94,13.29-.49,13.31,1.66-.18,7.49-.18,7.49S167.21,119,167.16,125s-27.25,25.3-27.25,25.3l-11.74-15.25Z"/><line class="cls-5" x1="151.38" y1="120" x2="150.97" y2="123.61"/><polygon class="cls-9" points="120.78 232.57 110.41 388.07 91.13 386.35 93.46 232.57 120.78 232.57"/><path class="cls-8" d="M120.78,232.57l-1.42,21.2s-12.42,17.07-26.56,22.48l.66-43.68Z"/><path class="cls-5" d="M98.2,256.62S96.74,357.2,94.08,386.35"/><path class="cls-6" d="M94.37,148.15s-12.53-.24-14.2.85-10.23,75.13-10.23,77.68,4.17,5.89,4.17,5.89h46.67s5-1.94,5-6.69c0-2.49-4.08-75.51-5-76.88s-13.66-1.27-13.66-1.27Z"/><path class="cls-7" d="M110.41,134.57a4.91,4.91,0,0,0,3.73-2.68,16.16,16.16,0,0,0,1.79-5.17A80.34,80.34,0,0,0,117,111a6.86,6.86,0,0,0-.48-3.16,1.41,1.41,0,0,0-.7-.72c-.79-.28-1.48.8-1.91,1.73a15.06,15.06,0,0,0-.74-4.22c-.46-1.22-1.28-2.37-2.33-2.42a.87.87,0,0,0-.62.18,1.78,1.78,0,0,0-.47.75c-.47,1-.93,2.1-1.39,3.15a7.69,7.69,0,0,0-1.15-2.69c-.48-.93-1.17-2-2-1.76s-1.16,1.28-1.45,2.23a13.14,13.14,0,0,0-.74,3.78c-2,0-4-.24-5.93-.26a5.78,5.78,0,0,0-2.63.38,5.15,5.15,0,0,0-2.45,4.66c-.53-.37-1.08-.54-1.48.06a5.81,5.81,0,0,0-.67,2.17,50.8,50.8,0,0,0-.64,10,16.93,16.93,0,0,0,.88,5.46c1.5,3.95,5.15,5.64,8.55,6.07C102.73,137,106.23,134.69,110.41,134.57Z"/><path class="cls-13" d="M110.91,125.16s4.93-3.84,6.28.47c1.15,3.66-3.56,5.72-6.12,3.44Z"/><path class="cls-4" d="M106.11,127.8l1,19.93s-2.59,4-6.42,4.19c-2,.11-5.49-.77-6.33-3.77L93,128.32Z"/><path class="cls-16" d="M106.11,127.8l-11,.44s-.18,21,12,19.49Z"/><path class="cls-4" d="M93.85,120.75c.33-7.84,10.45-6.88,10.45-6.88s10.16-.12,9.83,7.72c-.1,2.44-.34,7.57-.37,8.93-.09,3.36-3.08,12.49-10.52,12.18s-9.28-7.9-9.76-13C93.35,128.31,93.75,123.18,93.85,120.75Z"/><path class="cls-13" d="M107.88,132c0,.46,1.1.88,2.49.94s2.55-.27,2.57-.73-1.1-.87-2.5-.93S107.89,131.58,107.88,132Z"/><path class="cls-13" d="M95.88,131.53c0,.46,1.1.87,2.5.93s2.55-.26,2.57-.72-1.1-.87-2.5-.93S95.9,131.07,95.88,131.53Z"/><path class="cls-16" d="M101.93,127.23c0,.74-.36,1.34-.77,1.32s-.71-.62-.69-1.36.37-1.34.77-1.32S102,126.49,101.93,127.23Z"/><path class="cls-7" d="M98,124.11c-.18-.54.93-1.47,1.27-1.53a11.17,11.17,0,0,1,3.19.31,1.89,1.89,0,0,1,.67.93C103.16,124.1,98.16,124.46,98,124.11Z"/><path class="cls-16" d="M107.26,127.41c0,.74.28,1.35.68,1.36s.75-.57.78-1.31-.28-1.36-.68-1.37S107.28,126.66,107.26,127.41Z"/><path class="cls-7" d="M111.34,124.54c.22-.53-.83-1.52-1.17-1.61a11.59,11.59,0,0,0-3.2.1,2,2,0,0,0-.73.89C106.23,124.2,111.2,124.88,111.34,124.54Z"/><path class="cls-15" d="M102.28,136.18a3.47,3.47,0,0,0,1.91.53,10.34,10.34,0,0,0,2-.26"/><path class="cls-13" d="M103.41,138.37c0-.34,1.94-.3,1.83,0S103.47,138.78,103.41,138.37Z"/><path class="cls-15" d="M104.37,129.47s1.34,2.15,1.53,2.48-.94.73-1.55.76"/><path class="cls-4" d="M94.36,125.16s-4.93-3.84-6.28.47c-1.16,3.66,3.55,5.72,6.12,3.44Z"/><path class="cls-7" d="M97,109.24c-1.8.39-1,5.24-.18,6.53a11.83,11.83,0,0,0,5.6,3.64,11.6,11.6,0,0,0,4.8-.47,4.61,4.61,0,0,1,3-.06c1.93.78,3.31,5.87,3.75,7.45,0,0,3.18-2,2.2-6.93S107.57,106.94,97,109.24Z"/><path class="cls-7" d="M95.52,113s3.25,5.57,3.25,6.81-2.9,1.88-3.15,2.43.5,2.58-2,2.21c0,0-2.83-2.46-2.19-5.58S95.52,113,95.52,113Z"/><path class="cls-15" d="M89.86,126.1a1.22,1.22,0,0,1,1.2-.76c1,0,1.65,1.55,2,2.92"/><path class="cls-26" d="M74.11,232.57,51.61,380.72l18.33,5.63L98.42,263.41s22.36-14,22.36-30.84Z"/><path class="cls-5" d="M77.75,232.57l-2.19,13.22s7.11-1.66,9.61-13.22"/><path class="cls-4" d="M63.62,63.71c.37-1-2-1.48-2-1.48A2.83,2.83,0,0,0,63,61c.39-.8-1.24-1.88-1.24-1.88s1.89-2.08,1.2-2.91-11.16-1.68-11.42.46-.67,7.46-.67,7.46l3.82,8.07c5.72-1.45,5.21-7.77,5.21-7.77S63.26,64.72,63.62,63.71Z"/><path class="cls-4" d="M55.38,123.59l1.08-52.71c3.77-.91,3.44-6.41,3.44-6.41s3.36.25,3.72-.76-2-1.48-2-1.48A2.83,2.83,0,0,0,63,61c.39-.8-1.24-1.88-1.24-1.88s1.89-2.08,1.2-2.91-11.16-1.68-11.42.46-.67,7.46-.67,7.46-11.1,56.62-11.74,62.63,25.36,27,25.36,27L78.58,139.3Z"/><polygon class="cls-6" points="94.37 148.15 63.66 128.78 51.61 145.47 78.65 170.08 94.37 148.15"/><polygon class="cls-6" points="107.12 147.73 138 127.8 150.03 144.47 121.7 171.91 107.12 147.73"/><line class="cls-5" x1="55.38" y1="123.59" x2="55.38" y2="127.21"/><path class="cls-16" d="M76.86,168.45,82,173.57s-2,4.37-6.42,4.82Z"/><path class="cls-6" d="M81,230.63s5.44,5.93,11.51,7.07,14.58-4.51,19.89-7.07Z"/><path class="cls-5" d="M78.77,230.51s.45-1.66,1.14-1.8,1.77,2.7,3.24,3.86"/><path class="cls-5" d="M108.63,232.57s3.46-2.07,4.57-3.87"/><path class="cls-5" d="M119.55,154.8s2.57,9.82,2.94,16.4"/><path class="cls-5" d="M93,147.27s1,8.94,8.22,8.52,7.6-9.15,7.6-9.15"/><line class="cls-5" x1="133.16" y1="130.92" x2="146.58" y2="147.8"/><line class="cls-5" x1="55.95" y1="149.43" x2="68.2" y2="131.64"/><path class="cls-5" d="M88.07,212.7l8.63-7.07c6.72-5.49,13.48-11,18.92-17.81"/><path class="cls-5" d="M118,198.85a61.61,61.61,0,0,1-10.87,18.78"/><line class="cls-5" x1="91.21" y1="380.99" x2="110.58" y2="383.29"/><path class="cls-5" d="M52.38,375.66c0-.21,19,4.49,19,4.49"/><text class="cls-27" transform="translate(68.91 68.43)">V<tspan class="cls-28" x="12.08" y="0">O</tspan><tspan class="cls-29" x="26.45" y="0">TE !</tspan></text><path class="cls-5" d="M78.77,174.12s-6.62,50.52-6.72,52.4,3.62,6,3.62,6"/><path class="cls-17" d="M414.13,384.17s-2.32,3.75-2.26,5.87c0,1.48,1.42,10.76,1.54,12.13s2,4,3,4.14,8.76.38,10.21-.25-.41-5.28-4-6.5Z"/><path class="cls-4" d="M384.33,260.84s29.48,130.85,34,132.5-7.31-133.14-7.31-133.14Z"/><path class="cls-4" d="M366.29,260s9.33,94.51,18,125.27c1.69,6,3.88,8,5.13,8.13,4.81.53.67-132.42.67-132.42Z"/><path class="cls-10" d="M402.38,214.1s3,8.56,5.09,17.2c2.09,8.48,8.36,58.42,8.36,58.42s-41.2,2.78-52.41,0L360.8,214.1Z"/><path class="cls-8" d="M360.8,214.1l.39,11.35s31.45,5.5,46,4.61c0,0-2.34-10.75-5.33-16Z"/><path class="cls-5" d="M415.34,285.87s-40.84,2.78-52,0"/><path class="cls-5" d="M397.06,214.1a94.28,94.28,0,0,1,6.43,17.2c2.08,8.48,8.25,58.68,8.25,58.68"/><path class="cls-7" d="M376.64,112.53s7.75-5.91,13.66,0,17.72,44.67,28.06,48c0,0-24.73,25.11-48,14.4,0,0-15.5-28.8-11.44-47.63S372.58,107.73,376.64,112.53Z"/><polygon class="cls-6" points="360.8 214.1 358.29 221.47 373.62 221.47 375.47 216.56 377.76 221.47 405.59 221.47 402.38 214.1 360.8 214.1"/><path class="cls-30" d="M372.32,149.71a38.71,38.71,0,0,0-4.68.71c-1.74.85-9.58,19.61-10.83,22.13s5.3,10.24,5.3,10.24L360.8,214.1h41.58s-2.29-25.45-2.71-28.16S398,152.13,398,152.13l-12.47-2.65Z"/><path class="cls-4" d="M392,150.86s-.57,1.15-1.58,2.75c-2.41,3.82-7.29,10.22-12.69,9.76-4.7-.4-5.69-5.43-5.74-9.28a26.8,26.8,0,0,1,.29-4.39l13.21-.22Z"/><path class="cls-13" d="M366.48,129.24s-4.22-1.53-4.48,2.17,1.93,5.18,5.27,3.86Z"/><path class="cls-4" d="M385.14,133.25l.39,16.23c.17,3.26-1.9,6.12-4.74,6.51h0c-3.28.46-6.15-2.52-6.07-6.29l.28-15.08Z"/><path class="cls-12" d="M374.71,143.36c4.19-.13,8.67-6.37,8.67-6.37s2.15,12.43-8.66,12.65v-6.28"/><path class="cls-4" d="M364.63,129.22c.06,4.6,1.21,16.87,8.57,16.87,12.39,0,10.45-16.13,10.54-17.24,0-.37.06-.76.08-1.16.2-3.67-.33-9.39-7-11-4.74-1.12-11.18,3.79-12.12,9.76C364.71,126.48,364.61,127.57,364.63,129.22Z"/><path class="cls-13" d="M379.86,136.13c0-.85-4-.95-4,0S379.79,137.45,379.86,136.13Z"/><path class="cls-13" d="M369.39,136.51c0-.84-4-.95-4,0S369.32,137.83,369.39,136.51Z"/><path class="cls-15" d="M373,133.67s-2-.06-2.34.58,2.45,2.35,2.45,2.35"/><path class="cls-30" d="M398,152.13c4.34.15,10.65,21.35,13.05,28.79l-12.74,3.54s-4.09-10.72-6.27-17.05S391.79,151.9,398,152.13Z"/><path class="cls-6" d="M390.46,153.61c-2.41,3.82-7.29,10.22-12.69,9.76-4.7-.4-5.69-5.43-5.74-9.28.05-.28.09-.43.09-.43s2.43,4.14,6.29,4.36C381.6,158.2,388.26,154.79,390.46,153.61Z"/><path class="cls-5" d="M377.23,181.88s7.59,4.16,13.25-1.24"/><path class="cls-5" d="M362.11,182.79s.45.62,3.69.86"/><path class="cls-5" d="M399.39,184.16s-9.26-18.34-7.76-23.9"/><path class="cls-7" d="M365.94,127.4a2.93,2.93,0,0,1,2.71-1.06c1.87.18,2.13.93,2,1.17s-1.18.27-1.9-.05C367.62,127,365.89,127.84,365.94,127.4Z"/><path class="cls-7" d="M380.13,127.73a3,3,0,0,0-2.66-1.19c-1.88.1-2.17.84-2,1.08.28.4,1.17.33,1.91,0C378.47,127.24,380.15,128.17,380.13,127.73Z"/><path class="cls-4" d="M382.34,129.57s4.22-1.53,4.49,2.16-1.94,5.18-5.28,3.86Z"/><path class="cls-15" d="M386.13,132.45s-.67-1-1.31-.86a5.78,5.78,0,0,0-2.29,2.47"/><path class="cls-16" d="M374.45,130.91c-.05.74.24,1.37.64,1.39s.78-.55.83-1.29-.24-1.37-.64-1.4S374.5,130.17,374.45,130.91Z"/><path class="cls-16" d="M369.13,130.56c-.05.74-.42,1.32-.82,1.3s-.7-.65-.65-1.39.42-1.33.82-1.3S369.18,129.82,369.13,130.56Z"/><path class="cls-4" d="M322.51,73.9s-1.33,47-.82,51.52c.64,5.56,28.85,33.08,28.85,33.08L360,148.06l-28.38-28.67L329,70.68Z"/><path class="cls-4" d="M329,64.84l-6.36-4.51-5.55,5.45s2.74,6.1,6.13,8L329,70.68Z"/><rect class="cls-12" x="326" y="0.67" width="2.43" height="85.78" transform="translate(10.94 -50.97) rotate(9.06)"/><rect class="cls-1" x="294.13" y="6.69" width="71.65" height="44.01" transform="translate(8.63 -51.58) rotate(9.06)"/><text class="cls-31" transform="matrix(0.99, 0.15, -0.15, 0.99, 301.51, 28.65)">V<tspan class="cls-32" x="10.49" y="0">O</tspan><tspan x="22.98" y="0">TE !</tspan></text><path class="cls-13" d="M325.94,63.34c.82-.82-.35-2.1-1.26-2.89s-3.16-1.27-3.67-.89.35,1.52.35,1.52-1.8,0-2.1.42.3,1.33.3,1.33-2-.69-2.39,0,.74,1.93.74,1.93-1.12-.4-1.5.28,4.3,3.91,5.4,2.91a1.2,1.2,0,0,0,.06-1.9s2,.61,2.21-.11-.74-2.05-.74-2.05S325.18,64.09,325.94,63.34Z"/><path class="cls-4" d="M329,64.84a34.19,34.19,0,0,0-2.25-4.66,7.52,7.52,0,0,0-3.58-1.12c-.34.16-1.52,3.41-.77,3.83s2.23-1.77,2.23-1.77S324.28,68,329,64.84Z"/><polygon class="cls-30" points="372.32 149.71 352.77 139.2 344.03 153.8 367.27 170.6 372.32 149.71"/><line class="cls-15" x1="331.62" y1="119.39" x2="331.62" y2="121.67"/><path class="cls-33" d="M375.18,138.43l-3.7-.19s.15,5.08,2,5.07C375,143.31,375.18,138.43,375.18,138.43Z"/><path class="cls-7" d="M383.75,129.27a10.11,10.11,0,0,1-5.89-8.46s-11.23,8-16.33,7.09c0,0-1.53-14.42,15.13-13.31C389.56,115.46,383.75,129.27,383.75,129.27Z"/><path class="cls-17" d="M391.08,385.23c2.22,0,3.45,4.41,2.52,7.78s-6.57,11.94-8,13.12l-16,.18a2.93,2.93,0,0,1,2.21-3.33c2.7-.83,4-1,6.66-3.19Z"/><path class="cls-4" d="M391.08,385.23s-1.12,10-5.07,14.48l-7.51.08a29.34,29.34,0,0,0,5.36-16.25Z"/><path class="cls-17" d="M393.88,390.14s-.11,12.82.17,15.9l-1.43,0s-.77-12.08-.47-14Z"/><path class="cls-4" d="M414.13,382.51l1.08,17.05a18.24,18.24,0,0,1,7.5,0l-3.31-17.89Z"/><path class="cls-4" d="M429.48,147.82c-1.55-2.46,1.5-5.22,1.5-5.22s-1.93-1.62-1.6-2.35,1.86.27,1.86.27a2.1,2.1,0,0,1-.13-1.38c.21-.63,1.64-.36,1.64-.36s.07-2.09.88-2.18,6.84,4.92,5.86,6.2-3.52,4.34-3.52,4.34-24.23,47.37-28.82,47c-5.67-.42-7.95-10.13-7.95-10.13Z"/><path class="cls-5" d="M360,165.34a104.75,104.75,0,0,1,5.39-11.45"/><line class="cls-5" x1="355.71" y1="140.78" x2="348.38" y2="156.94"/><line class="cls-5" x1="397.51" y1="180.22" x2="407.71" y2="170.6"/><line class="cls-5" x1="378.41" y1="158.02" x2="377.78" y2="161.37"/><path class="cls-5" d="M368.58,194.6a58.83,58.83,0,0,0,21,15.32"/><path class="cls-5" d="M367.59,202.25a28,28,0,0,0,4.77,7.47"/></g></g></svg>