<svg xmlns="http://www.w3.org/2000/svg" xmlns:xlink="http://www.w3.org/1999/xlink" viewBox="0 0 2790.44 3011.21"><defs><style>.cls-1{fill:url(#linear-gradient);}.cls-2{fill:url(#linear-gradient-2);}.cls-3{isolation:isolate;}.cls-4{fill:#f4f7fa;}.cls-5{clip-path:url(#clip-path);}.cls-6{opacity:0.5;}.cls-10,.cls-6{mix-blend-mode:soft-light;}.cls-7{fill:#fff;}.cls-8{fill:url(#linear-gradient-4);}.cls-9{clip-path:url(#clip-path-2);}.cls-10,.cls-15{opacity:0.8;}.cls-11{fill:url(#linear-gradient-6);}.cls-12{fill:url(#linear-gradient-7);}.cls-13{fill:url(#linear-gradient-8);}.cls-14{fill:url(#linear-gradient-9);}.cls-16{fill:url(#linear-gradient-10);}.cls-17{fill:url(#linear-gradient-11);}.cls-18{fill:#d8dee8;}.cls-19{fill:url(#linear-gradient-12);}.cls-20{fill:url(#linear-gradient-13);}.cls-21{fill:url(#linear-gradient-14);}.cls-22{fill:url(#linear-gradient-15);}.cls-23{fill:url(#linear-gradient-16);}.cls-24{fill:url(#linear-gradient-17);}.cls-25{fill:url(#linear-gradient-18);}.cls-26{fill:url(#linear-gradient-19);}.cls-27{fill:url(#linear-gradient-20);}.cls-28{fill:url(#linear-gradient-21);}.cls-29{fill:url(#linear-gradient-22);}.cls-30{fill:url(#linear-gradient-23);}.cls-31{fill:url(#linear-gradient-24);}.cls-32{fill:url(#linear-gradient-25);}.cls-33,.cls-36,.cls-47,.cls-53{opacity:0.3;mix-blend-mode:multiply;}.cls-33{fill:url(#linear-gradient-26);}.cls-34{fill:url(#linear-gradient-27);}.cls-35{fill:url(#linear-gradient-28);}.cls-36{fill:url(#linear-gradient-29);}.cls-37{fill:#9d3060;}.cls-38{fill:url(#linear-gradient-30);}.cls-39{fill:url(#linear-gradient-31);}.cls-40{fill:url(#linear-gradient-32);}.cls-41{fill:url(#linear-gradient-33);}.cls-42{fill:url(#linear-gradient-34);}.cls-43{fill:url(#linear-gradient-35);}.cls-44{fill:url(#linear-gradient-36);}.cls-45{fill:url(#linear-gradient-37);}.cls-46{fill:url(#linear-gradient-38);}.cls-48{fill:url(#linear-gradient-39);}.cls-49{fill:url(#linear-gradient-40);}.cls-50{fill:url(#linear-gradient-41);}.cls-51{fill:url(#linear-gradient-42);}.cls-52{fill:url(#linear-gradient-43);}.cls-53{fill:url(#linear-gradient-44);}.cls-54{fill:url(#linear-gradient-45);}</style><linearGradient id="linear-gradient" x1="2005.33" y1="274.9" x2="1354.29" y2="1958.16" gradientUnits="userSpaceOnUse"><stop offset="0" stop-color="#ff9085"/><stop offset="1" stop-color="#fb6fbb"/></linearGradient><linearGradient id="linear-gradient-2" x1="2126.58" y1="1165.09" x2="1512.48" y2="2372.59" gradientUnits="userSpaceOnUse"><stop offset="0" stop-color="#ffc444"/><stop offset="1" stop-color="#f36f56"/></linearGradient><clipPath id="clip-path" transform="translate(0 211.21)"><path class="cls-1" d="M1498.33,1976.51c-142.71,7.89-414.71-562.38-224.67-865.81,79.3-126.62,199-142.79,249.59-304,45.16-143.87-30.17-194.58-6.51-354.82C1550,226.54,1749.84-17.72,1933.89,1c92.34,9.4,195.64,86.53,225.49,196.1,23.9,87.76-48.67,177-23,194.81,21.07,14.6,63.8-44.87,101.4-33.79,55.45,16.35,93.72,184.38,43.6,325.32-85.81,241.29-376.11,249.73-388,423.63-7.56,110.84,107.79,145.37,88.79,259.57-16.72,100.47-113.64,119.57-237.69,243.95C1550.17,1805.42,1574.83,1972.29,1498.33,1976.51Z"/></clipPath><linearGradient id="linear-gradient-4" x1="1373.69" y1="1405.37" x2="759.59" y2="2612.88" gradientTransform="translate(273.26 348.92) rotate(-12.57)" xlink:href="#linear-gradient-2"/><clipPath id="clip-path-2" transform="translate(0 211.21)"><path class="cls-2" d="M1455,2292.22c-46.68-227.78-40.17-404.29-26.55-519.45,10.69-90.39,34.48-216.72,98.79-232.6,30.82-7.61,48.39,15.71,80.56,6.29,60.73-17.81,59.17-118.87,97.51-192.38,65.57-125.76,276.66-226.08,427.82-151.73,182,89.54,201.37,395.09,103.49,489.25-58,55.8-161.77,41.81-167.42,82.38-5.68,40.84,98.32,63,105.62,128.45,7.54,67.77-94.43,129.2-100.61,132.84-123.59,72.65-220.81-2.5-356.43,31C1644.2,2084.5,1548.33,2137.39,1455,2292.22Z"/></clipPath><linearGradient id="linear-gradient-6" x1="1075.87" y1="1422.33" x2="647.21" y2="1469.09" gradientUnits="userSpaceOnUse"><stop offset="0" stop-color="#444b8c"/><stop offset="1" stop-color="#26264f"/></linearGradient><linearGradient id="linear-gradient-7" x1="1453.56" y1="341.81" x2="393.61" y2="3950.32" xlink:href="#linear-gradient-6"/><linearGradient id="linear-gradient-8" x1="358.94" y1="1358.28" x2="1424.61" y2="1582.27" gradientUnits="userSpaceOnUse"><stop offset="0" stop-color="#e38ddd"/><stop offset="1" stop-color="#9571f6"/></linearGradient><linearGradient id="linear-gradient-9" x1="1056.37" y1="252.93" x2="-189.35" y2="3626.77" gradientUnits="userSpaceOnUse"><stop offset="0" stop-color="#311944"/><stop offset="1" stop-color="#893976"/></linearGradient><linearGradient id="linear-gradient-10" x1="2435.57" y1="1811.39" x2="2388.6" y2="1529.56" xlink:href="#linear-gradient"/><linearGradient id="linear-gradient-11" x1="2325.68" y1="1228.62" x2="2332.85" y2="1333" gradientUnits="userSpaceOnUse"><stop offset="0" stop-color="#f36f56"/><stop offset="1" stop-color="#ffc444"/></linearGradient><linearGradient id="linear-gradient-12" x1="3349.12" y1="-979.59" x2="3500.76" y2="-979.59" gradientTransform="matrix(0.8, 0.6, -0.6, 0.8, -1301.07, -696.48)" gradientUnits="userSpaceOnUse"><stop offset="0" stop-color="#aa80f9"/><stop offset="1" stop-color="#6165d7"/></linearGradient><linearGradient id="linear-gradient-13" x1="3349.11" y1="-534.63" x2="3500.75" y2="-534.63" xlink:href="#linear-gradient-12"/><linearGradient id="linear-gradient-14" x1="3349.11" y1="-318.36" x2="3500.74" y2="-318.36" xlink:href="#linear-gradient-12"/><linearGradient id="linear-gradient-15" x1="3364.03" y1="-754" x2="3490.81" y2="-754" gradientTransform="matrix(0.8, 0.6, -0.6, 0.8, -1301.07, -696.48)" xlink:href="#linear-gradient"/><linearGradient id="linear-gradient-16" x1="-4770.25" y1="-754.24" x2="-4643.47" y2="-754.24" gradientTransform="matrix(-0.8, -0.6, -0.6, 0.8, -2325.79, -1462.54)" xlink:href="#linear-gradient"/><linearGradient id="linear-gradient-17" x1="2438.52" y1="1318.65" x2="2429.71" y2="1212.94" gradientTransform="matrix(1, 0.05, -0.05, 1, 160.56, -33.84)" gradientUnits="userSpaceOnUse"><stop offset="0" stop-color="#26264f"/><stop offset="1" stop-color="#444b8c"/></linearGradient><linearGradient id="linear-gradient-18" x1="2408.43" y1="1135.09" x2="2418.21" y2="1497.15" gradientTransform="matrix(1, 0.05, -0.05, 1, 160.56, -33.84)" xlink:href="#linear-gradient-11"/><linearGradient id="linear-gradient-19" x1="-700.91" y1="936.15" x2="-617.83" y2="1023.72" gradientTransform="matrix(-0.97, -0.26, -0.26, 0.97, 2147.92, 278.74)" xlink:href="#linear-gradient-11"/><linearGradient id="linear-gradient-20" x1="2034.67" y1="1325.97" x2="2054.89" y2="1390.56" xlink:href="#linear-gradient-11"/><linearGradient id="linear-gradient-21" x1="-422.58" y1="2807.29" x2="-487.46" y2="2593.34" gradientTransform="matrix(-1, 0.01, 0.01, 1, 2003.83, -9.1)" xlink:href="#linear-gradient-6"/><linearGradient id="linear-gradient-22" x1="-478.51" y1="2765.62" x2="-478.51" y2="2421.93" gradientTransform="matrix(-1, 0.01, 0.01, 1, 2003.83, -9.1)" xlink:href="#linear-gradient-2"/><linearGradient id="linear-gradient-23" x1="-357.43" y1="2752.79" x2="-357.43" y2="2409.08" gradientTransform="matrix(-1, 0.01, 0.01, 1, 2003.83, 202.11)" xlink:href="#linear-gradient-2"/><linearGradient id="linear-gradient-24" x1="-333.53" y1="2765.78" x2="-398.41" y2="2551.84" gradientTransform="matrix(-1, 0.01, 0.01, 1, 2003.83, -9.1)" xlink:href="#linear-gradient-6"/><linearGradient id="linear-gradient-25" x1="-508.21" y1="2023.98" x2="-539.77" y2="2734.18" gradientTransform="matrix(-1, 0.01, 0.01, 1, 2003.83, -9.1)" xlink:href="#linear-gradient-9"/><linearGradient id="linear-gradient-26" x1="-508.21" y1="2023.98" x2="-539.77" y2="2734.18" gradientTransform="matrix(-1, 0.01, 0.01, 1, 2003.83, -9.1)" xlink:href="#linear-gradient-9"/><linearGradient id="linear-gradient-27" x1="63.42" y1="2317.64" x2="-632.28" y2="2286.01" gradientTransform="matrix(-1, 0.01, 0.01, 1, 2003.83, -9.1)" xlink:href="#linear-gradient-9"/><linearGradient id="linear-gradient-28" x1="2335.38" y1="1513.33" x2="2460.63" y2="2165.71" xlink:href="#linear-gradient"/><linearGradient id="linear-gradient-29" x1="2233.62" y1="1532.87" x2="2358.88" y2="2185.25" xlink:href="#linear-gradient"/><linearGradient id="linear-gradient-30" x1="177.86" y1="415.27" x2="787.22" y2="415.27" xlink:href="#linear-gradient-2"/><linearGradient id="linear-gradient-31" x1="2275.3" y1="2636.58" x2="2293.13" y2="2957.45" gradientTransform="matrix(-1, 0, 0, 1, 2921.9, 0)" xlink:href="#linear-gradient-6"/><linearGradient id="linear-gradient-32" x1="2294" y1="2739.48" x2="2320.69" y2="2739.48" gradientTransform="matrix(-1, 0, 0, 1, 2921.9, 0)" gradientUnits="userSpaceOnUse"><stop offset="0" stop-color="#311944"/><stop offset="1" stop-color="#a03976"/></linearGradient><linearGradient id="linear-gradient-33" x1="2597.95" y1="2618.66" x2="2615.77" y2="2939.52" gradientTransform="matrix(-1, 0, 0, 1, 2921.9, 0)" xlink:href="#linear-gradient-6"/><linearGradient id="linear-gradient-34" x1="2565.04" y1="2723.02" x2="2618.12" y2="2723.02" xlink:href="#linear-gradient-32"/><linearGradient id="linear-gradient-35" x1="2279.67" y1="2707.33" x2="2270.76" y2="2362.7" gradientTransform="matrix(-1, 0, 0, 1, 2921.9, 0)" xlink:href="#linear-gradient-9"/><linearGradient id="linear-gradient-36" x1="2477.83" y1="2702.21" x2="2468.92" y2="2357.58" gradientTransform="matrix(-1, 0, 0, 1, 2921.9, 0)" xlink:href="#linear-gradient-9"/><linearGradient id="linear-gradient-37" x1="2599.48" y1="1839.55" x2="2474.7" y2="1662.78" gradientTransform="matrix(-1, 0, 0, 1, 2921.9, 0)" xlink:href="#linear-gradient-6"/><linearGradient id="linear-gradient-38" x1="703.87" y1="1786.76" x2="31.95" y2="2176.91" xlink:href="#linear-gradient-2"/><linearGradient id="linear-gradient-39" x1="2464.82" y1="1465.1" x2="2567.81" y2="2094.94" gradientTransform="matrix(-1, 0, 0, 1, 2921.9, 0)" xlink:href="#linear-gradient-2"/><linearGradient id="linear-gradient-40" x1="2443.51" y1="1468.58" x2="2546.51" y2="2098.42" gradientTransform="matrix(-1, 0, 0, 1, 2921.9, 0)" xlink:href="#linear-gradient-2"/><linearGradient id="linear-gradient-41" x1="538.3" y1="1680.7" x2="918.25" y2="1680.7" xlink:href="#linear-gradient"/><linearGradient id="linear-gradient-42" x1="1608.73" y1="841.54" x2="1587.94" y2="897" gradientTransform="matrix(-0.86, 0.5, 0.5, 0.86, 1528.45, -109.31)" xlink:href="#linear-gradient-32"/><linearGradient id="linear-gradient-43" x1="1601.65" y1="771.35" x2="1531.35" y2="858.49" gradientTransform="matrix(-0.86, 0.5, 0.5, 0.86, 1528.45, -109.31)" xlink:href="#linear-gradient-32"/><linearGradient id="linear-gradient-44" x1="570.46" y1="1679.23" x2="918.25" y2="1679.23" xlink:href="#linear-gradient"/><linearGradient id="linear-gradient-45" x1="1999.07" y1="1722.8" x2="2037.69" y2="1525.73" xlink:href="#linear-gradient-32"/></defs><g class="cls-3"><g id="Layer_2" data-name="Layer 2"><g id="Illustration"><path class="cls-4" d="M1438.64,19.79C724.3-1.31,105.53,517,12,1197.12-90.17,1940.72,472.4,2609.79,1164.61,2717c861,133.29,1696.12-637.81,1621.13-1474.33C2729.25,612.37,2164.78,41.23,1438.64,19.79Z" transform="translate(0 211.21)"/><path class="cls-1" d="M1498.33,1976.51c-142.71,7.89-414.71-562.38-224.67-865.81,79.3-126.62,199-142.79,249.59-304,45.16-143.87-30.17-194.58-6.51-354.82C1550,226.54,1749.84-17.72,1933.89,1c92.34,9.4,195.64,86.53,225.49,196.1,23.9,87.76-48.67,177-23,194.81,21.07,14.6,63.8-44.87,101.4-33.79,55.45,16.35,93.72,184.38,43.6,325.32-85.81,241.29-376.11,249.73-388,423.63-7.56,110.84,107.79,145.37,88.79,259.57-16.72,100.47-113.64,119.57-237.69,243.95C1550.17,1805.42,1574.83,1972.29,1498.33,1976.51Z" transform="translate(0 211.21)"/><g class="cls-5"><g class="cls-6"><path class="cls-7" d="M1534.47,2101.87a7.14,7.14,0,0,1-8.29-10.23c0-4.32-2.83-18.29-6.11-34.31-18.49-90.18-67.59-329.71-18.8-710.87,61.36-479.36,252.66-1002.23,568.57-1554.08a7.14,7.14,0,0,1,9.74-2.65,7.13,7.13,0,0,1,2.65,9.74c-339.41,592.9-710,1465.4-548.17,2255,7.32,35.72,8.64,42.16,2.47,46.42A7,7,0,0,1,1534.47,2101.87Z" transform="translate(0 211.21)"/><path class="cls-7" d="M1631.79,838.35a7.14,7.14,0,0,1-4.35-13.6c306.36-107.13,488-216.85,586.51-290,106.62-79.24,141.28-133.85,141.62-134.4a7.14,7.14,0,0,1,12.14,7.52c-1.42,2.29-35.82,56.8-144.07,137.47-99.32,74-282.55,184.89-591.49,292.92Z" transform="translate(0 211.21)"/><path class="cls-7" d="M1743,493.86a7,7,0,0,1-4.45-.15c-83.38-30.52-140.86-133.88-170.84-307.21-22.11-127.76-20.26-248.37-20.23-249.57a7.13,7.13,0,0,1,7.26-7,7.14,7.14,0,0,1,7,7.27c-.08,4.73-6.14,474.36,181.71,543.13a7.13,7.13,0,0,1-.46,13.55Z" transform="translate(0 211.21)"/><path class="cls-7" d="M1500.82,1439.47a7.13,7.13,0,0,1-6.07-1c-115.37-79.92-171.14-219.57-197.61-322.65-28.57-111.23-30.1-205.09-30.11-206a7.14,7.14,0,0,1,14.28-.19c0,.92,1.55,93.35,29.74,203,25.87,100.62,80.16,236.8,191.83,314.16a7.14,7.14,0,0,1-2.06,12.72Z" transform="translate(0 211.21)"/></g></g><path class="cls-8" d="M1455,2292.22c-46.68-227.78-40.17-404.29-26.55-519.45,10.69-90.39,34.48-216.72,98.79-232.6,30.82-7.61,48.39,15.71,80.56,6.29,60.73-17.81,59.17-118.87,97.51-192.38,65.57-125.76,276.66-226.08,427.82-151.73,182,89.54,201.37,395.09,103.49,489.25-58,55.8-161.77,41.81-167.42,82.38-5.68,40.84,98.32,63,105.62,128.45,7.54,67.77-94.43,129.2-100.61,132.84-123.59,72.65-220.81-2.5-356.43,31C1644.2,2084.5,1548.33,2137.39,1455,2292.22Z" transform="translate(0 211.21)"/><path class="cls-2" d="M1455,2292.22c-46.68-227.78-40.17-404.29-26.55-519.45,10.69-90.39,34.48-216.72,98.79-232.6,30.82-7.61,48.39,15.71,80.56,6.29,60.73-17.81,59.17-118.87,97.51-192.38,65.57-125.76,276.66-226.08,427.82-151.73,182,89.54,201.37,395.09,103.49,489.25-58,55.8-161.77,41.81-167.42,82.38-5.68,40.84,98.32,63,105.62,128.45,7.54,67.77-94.43,129.2-100.61,132.84-123.59,72.65-220.81-2.5-356.43,31C1644.2,2084.5,1548.33,2137.39,1455,2292.22Z" transform="translate(0 211.21)"/><g class="cls-9"><g class="cls-10"><path class="cls-7" d="M1429.46,2476.45l3.54.13c20.25-545.08,361.7-1019.07,913.38-1267.93l-1.45-3.23c-261.46,117.94-484,293.39-643.51,507.39C1533.7,1937.78,1439.66,2201.85,1429.46,2476.45Z" transform="translate(0 211.21)"/><path class="cls-7" d="M1262.47,1685.81c99.86,110.84,196.9,327.17,216.32,482.25l3.51-.45c-19.49-155.68-116.93-372.88-217.2-484.17Z" transform="translate(0 211.21)"/><path class="cls-7" d="M1434.66,2369.49l3.37,1.11c25.39-77.16,88.82-138.52,188.53-182.38,73.1-32.15,163.65-54.32,269.12-65.88l-.39-3.52c-105.83,11.6-196.72,33.86-270.16,66.16C1524.47,2229.25,1460.39,2291.33,1434.66,2369.49Z" transform="translate(0 211.21)"/><path class="cls-7" d="M1725.24,1683.31l3.31,1.28c55.35-143,17.74-299.77-23.56-406.13l-3.3,1.29C1742.76,1385.51,1780.19,1541.39,1725.24,1683.31Z" transform="translate(0 211.21)"/><path class="cls-7" d="M1971.41,1433.12l1.66,3.13c152.51-81.1,331.45-51.83,424.53-27.17l.91-3.42C2304.92,1380.87,2125,1351.46,1971.41,1433.12Z" transform="translate(0 211.21)"/></g></g><path class="cls-11" d="M1587.71,342.34l261.15,2170.6c3.91,32.54-18.52,61.72-49.94,64.84L711.21,2697.19c-66.63,4.14-103.11-29.9-107.22-64.5L329.81,325c-4.08-34.41,28.61-65.58,95.52-65.58l1097.6,23.12C1554.71,283.05,1583.82,310,1587.71,342.34Z" transform="translate(0 211.21)"/><path class="cls-12" d="M1636.67,338.61l262.58,2181.45c3.93,32.71-18.57,62-50.11,65.17L721.49,2697.5c-35.35,3.52-67.75-22.05-71.89-56.84L373.89,321c-4.11-34.59,21.86-62.39,57.6-61.79l1140.14,19.24C1603.53,279,1632.75,306.07,1636.67,338.61Z" transform="translate(0 211.21)"/><path class="cls-13" d="M1615.27,458.94l243.38,2022.63c3.67,30.56-17.4,57.91-46.92,60.78L751.21,2645.44c-32.86,3.19-63-20.68-66.83-53.06L429.58,449.58c-3.83-32.21,20.28-58.27,53.47-57.92l1071.4,11.41C1584.28,403.39,1611.61,428.53,1615.27,458.94Z" transform="translate(0 211.21)"/><path class="cls-14" d="M1046.57,337.11c1.39,11.61-7,20.91-18.63,20.76s-22.32-9.7-23.71-21.34,7-20.93,18.67-20.75S1045.18,325.5,1046.57,337.11Z" transform="translate(0 211.21)"/><g class="cls-6"><path class="cls-7" d="M1431.92,1816.66c-217.11-401.41-541.44-521.56-639.09-935.25C740,657.79,776,443.76,836.58,266.07l-405.09-6.83c-35.74-.6-61.71,27.2-57.6,61.79L649.6,2640.66c4.14,34.79,36.54,60.36,71.89,56.84l886.44-88.25C1614.49,2249.57,1528.7,1995.59,1431.92,1816.66Z" transform="translate(0 211.21)"/></g><g class="cls-15"><path class="cls-7" d="M1491,1540c-1.18-11.56-10.51-21.29-20.83-21L863.3,1535.17c-10.87.29-18.66,10.75-17.41,22.62l7,66.18c1.26,11.86,11.08,21.25,21.93,20.91L1481,1626c10.31-.32,17.72-10,16.54-21.53Z" transform="translate(0 211.21)"/><path class="cls-7" d="M1445.91,1681.86c-1.18-11.57-10.5-20.76-20.86-20.42l-481.33,15.69c-10.79.35-18.55,10.3-17.31,22.12l33.34,316.55c1.24,11.77,11,20.92,21.71,20.41l479.47-22.75c10.32-.49,17.74-10.25,16.57-21.77Zm-140.4,240.61c1.54,14.88-8.13,26.48-21.56,27.08l-135.81,6c-13.6.61-25.87-10.11-27.44-25.1L1105,1778.78c-1.57-15,8.2-28.42,21.82-28.91l136.11-4.88c13.46-.48,25.63,12,27.17,26.94Z" transform="translate(0 211.21)"/><path class="cls-7" d="M1189.36,1925.84a19.29,19.29,0,0,1-14.08-5.56l-39.8-37.87c-8.3-7.91-9.69-21.22-3.09-29.73s18.66-9,26.95-1.09l24.76,23.62,61.54-79.63c6.54-8.45,18.49-8.9,26.71-1s9.57,21.12,3.05,29.57l-73.26,95A16.92,16.92,0,0,1,1189.36,1925.84Z" transform="translate(0 211.21)"/><path class="cls-7" d="M1473.88,886H723.74c-51.12,0-90.24,41.37-84.62,94l21.67,202.93c5.6,52.46,53.63,95.39,104.53,94.57l747-12c47.64-.76,82.55-42.7,77.47-93.19L1570,976.63C1564.94,926,1521.71,886,1473.88,886Z" transform="translate(0 211.21)"/></g><path class="cls-16" d="M2338.59,1246.29s-20.75,154.5,142,263.43L2307.4,1551s-55.44-103.67-15.3-275.39Z" transform="translate(0 211.21)"/><path class="cls-17" d="M2308.1,1275.65s-9.33-23.05-7.82-33.42,26.2-24.22,43-38.52-.63,14.38-4.54,20.9-17.65,16.31-15.68,38.49Z" transform="translate(0 211.21)"/><rect class="cls-7" x="1537.8" y="601.07" width="1001.77" height="790.48" transform="translate(19.81 2243.39) rotate(-53.21)"/><path class="cls-18" d="M2039,672.16l-111.48-83.37,83.38-111.47,111.47,83.37Zm-76.68-88.39,71.66,53.6,53.6-71.66-71.67-53.6Z" transform="translate(0 211.21)"/><rect class="cls-18" x="2281.77" y="555.46" width="62.14" height="472.3" transform="translate(293.69 2380.84) rotate(-53.21)"/><path class="cls-18" d="M1908,847.34,1796.51,764l83.37-111.48,111.48,83.37ZM1831.3,759,1903,812.54l53.6-71.66-71.66-53.59Z" transform="translate(0 211.21)"/><rect class="cls-18" x="2150.76" y="730.64" width="62.14" height="472.3" transform="translate(100.87 2346.18) rotate(-53.21)"/><path class="cls-18" d="M1777,1022.51l-111.48-83.37,83.38-111.47L1860.34,911Zm-76.68-88.39,71.66,53.6,53.6-71.66-71.67-53.6Z" transform="translate(0 211.21)"/><rect class="cls-18" x="2019.74" y="905.81" width="62.14" height="472.3" transform="translate(-91.96 2311.52) rotate(-53.21)"/><path class="cls-18" d="M1646,1197.69l-111.47-83.37,83.37-111.48,111.48,83.37Zm-76.68-88.39,71.66,53.6,53.6-71.67-71.66-53.59Z" transform="translate(0 211.21)"/><rect class="cls-18" x="1888.73" y="1080.99" width="62.14" height="472.3" transform="translate(-284.79 2276.86) rotate(-53.21)"/><path class="cls-19" d="M1958.36,602.55l-.15-.12a12,12,0,0,1-5-8.86l-2.51-41.26a12.39,12.39,0,1,1,24.75-1.36L1977,578.1l132.75-26.36a12.43,12.43,0,0,1,4.84,24.38L1968,605A12.18,12.18,0,0,1,1958.36,602.55Z" transform="translate(0 211.21)"/><path class="cls-20" d="M1691.87,958.87l-.16-.12a11.93,11.93,0,0,1-5-8.86l-2.51-41.26a12.39,12.39,0,1,1,24.74-1.36l1.58,27.16,132.74-26.37a12.43,12.43,0,0,1,4.84,24.38l-146.56,28.91A12.13,12.13,0,0,1,1691.87,958.87Z" transform="translate(0 211.21)"/><path class="cls-21" d="M1562.34,1132.05l-.16-.12a11.93,11.93,0,0,1-5-8.86l-2.51-41.26a12.39,12.39,0,1,1,24.75-1.35l1.57,27.15,132.74-26.37a12.43,12.43,0,0,1,4.84,24.39L1572,1134.54A12.14,12.14,0,0,1,1562.34,1132.05Z" transform="translate(0 211.21)"/><path class="cls-22" d="M1898,833.68a12.37,12.37,0,0,1-4.86-8.18l-20.57-142.66a12.43,12.43,0,1,1,24.6-3.54L1917.77,822A12.43,12.43,0,0,1,1898,833.68Z" transform="translate(0 211.21)"/><path class="cls-23" d="M1816.41,772.64a12.43,12.43,0,0,1,5.66-22.26l142.66-20.57a12.43,12.43,0,1,1,3.55,24.6L1825.62,775A12.39,12.39,0,0,1,1816.41,772.64Z" transform="translate(0 211.21)"/><path class="cls-24" d="M2499.56,1397.94c-7.32-14.41-10.34-14.33-12.14-21.94-4.1-17.34,6.48-39.37,15.45-39.67,5.78-.2,6.26,8.79,18.5,22.8,15,17.17,24.1,14.91,32.92,29.81,2.07,3.49,11.36,19.18,5.64,30.88-7.29,15-36,17.31-48,5.79C2506.18,1420.14,2508.57,1415.7,2499.56,1397.94Z" transform="translate(0 211.21)"/><path class="cls-25" d="M2527,1411.35s-6,31.84-1.72,57.73c3.84,23.4,47.19,47.71,55.5,54.68s-22,14.54-49.87,10.9-104.06-28-115.64-41.63,13.48-6.9,34.57-9.47,41.21-37.91,41.82-55.94S2527,1411.35,2527,1411.35Z" transform="translate(0 211.21)"/><path class="cls-26" d="M2513.3,1434s-18.34,8-34.58-4.94c-14.54-11.63,7.08-47.35,21.87-47.8,4.94-.16,12.14,3.38,16.39,8.55,2.51,3.06,2.66,5.09,6.86,10,3.88,4.53,5.58,4.93,6.17,7.14.74,2.75-.53,7.34-10.48,15.25,5-.91,9.23.39,10.89,3.29a6.4,6.4,0,0,1,.65,3.39C2530.47,1434.23,2523.43,1436.72,2513.3,1434Z" transform="translate(0 211.21)"/><path class="cls-27" d="M2049.57,1324.35s-12.9-1.8-8.88-26.45c3.15-19.32.77-25.82-3.8-22.39s-5.2,14.59-5.2,14.59-16.64-14.19-23.49-32.79-11.25-2.93-12.72,6.37,9.79,38.16,16.15,43.54,15.66,29.11,15.66,29.11Z" transform="translate(0 211.21)"/><path class="cls-28" d="M2526.9,2687.53c6.64,13.54,4.78,19.36,3.12,21.92-4.84,7.51-16.51.42-47,4a51.37,51.37,0,0,1-18.89-.66c-7.29-1.72-15.88-5.6-15.52-7.55.14-.71,1.43-1,1.92-1.1,8.45-1.8,61.37-18,61.37-18Z" transform="translate(0 211.21)"/><path class="cls-29" d="M2531,2657.75l-4.72,30.28s-13,9.19-16.43-2c-2.45-8-2.39-29.66-2.39-29.66Z" transform="translate(0 211.21)"/><polygon class="cls-30" points="2382.68 2871.04 2395.45 2905.9 2414.01 2902.95 2409.7 2870.67 2382.68 2871.04"/><path class="cls-31" d="M2401.23,2713.89c9-10.66,17-9.69,18.62-17,1.27-5.76-2.26-12.81-7.57-15.49-7.47-3.77-16.53,2.11-18.57,3.44-13.89,9-10.11,23.15-23.2,29.27-2.64,1.24-6.82,2.54-11.22,6.67-1.87,1.75-6.5,6.09-5.42,9.08,1.26,3.46,9.52,3.34,17.37,3.22,9.42-.13,14.13-.2,18.66-3C2396.18,2726.13,2394.3,2722.12,2401.23,2713.89Z" transform="translate(0 211.21)"/><path class="cls-32" d="M2630.24,1933.52a998.76,998.76,0,0,1-25,179.55c-12.34,52.72-19.06,61.74-23.34,98.28-9.31,79.53,16.13,91.49,18.91,181.67,3.08,99.58-25.07,178.06-36.11,208a571.31,571.31,0,0,1-27.1,61.89c-9.29,7.76-23.17,4.4-37.81,1.1-3.48-90.33-8.41-175.38-11.89-265.71q-21.82-204.15-43.66-408.27Z" transform="translate(0 211.21)"/><path class="cls-33" d="M2499.8,2664c-3.48-90.33-8.41-175.38-11.89-265.71q-21.82-204.15-43.66-408.27l186-56.5c-.23,4.66-.56,9.15-.84,13.73-88,73.16-106.17,132.22-106.19,172.77,0,49.18,26.32,74.12,19.54,145.28-4.84,50.88-20.36,59.54-21.34,105.52-1.26,59.22,23.44,93.06,35.09,127.54,11.25,33.33,14.5,80.27-10,146.4-3.18,6.81-6.18,12.91-8.85,18.14C2528.32,2670.65,2514.44,2667.3,2499.8,2664Z" transform="translate(0 211.21)"/><path class="cls-34" d="M2525.07,1986.15c-55.79,68.32-87.61,132.19-106,176.93-22.09,53.84-38.11,94.19-33.09,146.45,5.52,57.51,31.61,78.18,48.93,127.21,16.8,47.55,25,120.72-18.84,229.61L2383,2677.8c-7.33-29.42-19.18-73.44-36.91-125.85-35.12-103.87-70.13-172.22-79.59-193.45-33.34-74.77-36.71-208.24,102.06-465.77Q2446.82,1939.42,2525.07,1986.15Z" transform="translate(0 211.21)"/><path class="cls-35" d="M2015.18,1331l44-30.84c17.86,109.81,58.47,152.9,92.95,171.76,83.2,45.47,157.46-35.57,316.71-2.5,43.89,9.12,120.38,26.09,162.8,88.61,11.15,16.43,15.11,28.88,33.63,146.76,23.66,150.7,24.5,177,21.17,209.44-6.11,59.38-9.81,95.37-37.19,127.22-72.7,84.57-227.23,41-246.6,35.22-35.79-10.6-91.41-27.07-113.51-74.37-10.4-22.25-9.3-42.59,6.68-124,31.66-161.19,35.7-171.63,26.87-189.28-29.82-59.57-124.31-25.48-204.14-80.88C2071.93,1575.73,2019.32,1505.15,2015.18,1331Z" transform="translate(0 211.21)"/><path class="cls-36" d="M2475.11,2055.1c-15.58-32,5.36-61.41-17.61-99.82-29.28-49-81.95-32.33-101.77-68.5-33.9-61.86,99.52-148.12,72.41-246.6-12.94-47-58.14-81-95.9-93.94-83.82-28.63-138.65,44.34-217.24,21.53-18.63-5.41-40-16.62-61.63-39.87,19.11,40.32,42.85,64.69,65.23,80.22,79.83,55.4,174.32,21.31,204.14,80.88,8.83,17.65,4.79,28.09-26.87,189.28-16,81.38-17.08,101.72-6.68,124,22.1,47.3,77.72,63.77,113.51,74.37,10.6,3.15,61.71,17.59,117.72,16.19C2495.43,2082.66,2482,2069.19,2475.11,2055.1Z" transform="translate(0 211.21)"/><path class="cls-37" d="M751.16,385.05c0,168.48-135.76,314.13-303.74,325.36C278.86,721.68,141.8,593.42,141.8,423.9S278.86,108.65,447.42,98.42C615.4,88.23,751.16,216.58,751.16,385.05Z" transform="translate(0 211.21)"/><path class="cls-38" d="M787.22,395.85c0,168.47-135.76,314.13-303.74,325.36-168.56,11.26-305.62-117-305.62-286.52S314.92,119.44,483.48,109.22C651.46,99,787.22,227.37,787.22,395.85Z" transform="translate(0 211.21)"/><path class="cls-7" d="M472.75,580.79a35,35,0,0,1-32.35-16.26L325.55,380.1c-10.77-17.29-5-41,12.95-52.87s41.12-7.56,51.87,9.71L470,465,575.13,250.92c9.43-19.21,32.09-28,50.6-19.69s25.87,30.64,16.45,49.83L506.36,557.91a41,41,0,0,1-32.29,22.77C473.63,580.73,473.19,580.76,472.75,580.79Z" transform="translate(0 211.21)"/><path class="cls-39" d="M601.94,2750.68s-2.23,17.74-.73,23.68,53.06,10.23,70.57,8.17-10.43-20-21.58-23.3S601.94,2750.68,601.94,2750.68Z" transform="translate(0 211.21)"/><path class="cls-40" d="M627.9,2721.09l-5.44,35.58s-13.86,6.23-20.52.08l-.73-37.25Z" transform="translate(0 211.21)"/><path class="cls-41" d="M337.18,2719.5s10.94,8.12,8,17.84-28.45,48.69-46.65,59.75-12.49-12-7.19-26.33,18.82-46,24.11-51.26S337.18,2719.5,337.18,2719.5Z" transform="translate(0 211.21)"/><path class="cls-42" d="M356.86,2680.4c-5.29,14.75-10.38,26.87-14.36,35.81-8.8,19.78-13.61,27.2-19.06,33.64-4.76,5.6-16,17.56-19,15.57s5.16-16.56,21-59.14c2.31-6.18,9.58-25.88,9.58-25.88h21.85Z" transform="translate(0 211.21)"/><path class="cls-43" d="M735.9,2064.31a922.06,922.06,0,0,1,2,164.39c-7.06,91-25.24,148.51-48,245.49-13.94,59.27-32.72,146.5-49.72,255.59a47.92,47.92,0,0,1-30.48,6,46.3,46.3,0,0,1-18.32-7c-44.59-136.27-31.42-220.71-9.9-273.32,9.17-22.43,20.3-40.12,26.24-74.6,7.87-45.6-1.86-71.1-15.73-176.75-9.89-75.3-8.17-86.94-1.6-98.23C616.62,2060.75,697,2061.63,735.9,2064.31Z" transform="translate(0 211.21)"/><path class="cls-44" d="M582.4,2080.15c-27.32,141.09-54.13,215.19-74.42,257.1a704.17,704.17,0,0,0-37.48,91.49c-14,42.32-19.8,73.45-22.78,87.15-9.42,43.24-32.7,106.39-95.33,189.21-.78.46-11.46,6.5-21.67,1.11a20.87,20.87,0,0,1-8.77-9.1c8.19-79.18,17.59-145.72,25.75-197.07,1.71-10.77,9.25-57.89,21.07-120.15,4.63-24.36,11.41-60.06,19.53-96.73,10.11-45.66,25.62-107.78,49.52-182.21Z" transform="translate(0 211.21)"/><path class="cls-45" d="M605.67,1522.11c15.5-14.32,45.14-30.83,60-69.21,4.48-11.55,20.33-52.48-3-83.79-13.88-18.59-39.67-31.21-62.39-26.74-19.42,3.82-22.46,17.34-55.46,44.57-12.84,10.59-33.49,27.62-56.47,37.09-39.37,16.23-63,1-102.54,2.7-48.56,2.14-105,29.24-132.14,68.64-48.24,69.94,21.64,140.89-31.2,222.82C205.11,1745,196.58,1739,155.58,1791S94,1869,97.65,1900.91c5.07,44.24,52.72,86.51,97.6,89.38,43.84,2.81,71.7-31.68,94-16.6,15.89,10.74,6.8,31.62,23.67,56.72,21.75,32.35,64.5,38.8,71.4,39.84,64.08,9.66,150.47-65.47,187.17-154.49C637.68,1755.24,521.44,1600,605.67,1522.11Z" transform="translate(0 211.21)"/><path class="cls-46" d="M868.6,1566.68c.44-44.81-101.35-80.62-147.92-92.15-72.45-18-130.46-6.68-144.55-3.7C485.78,1490,429.51,1544.19,408.34,1567c17.34,11.29,65.19,45.75,88.9,111.12,7.37,20.33,29.16,89.86-2,155-17.95,37.53-49.71,65.7-73.83,87.1-36.18,32.09-54.91,37-67,65.78-13.21,31.31.1,46.58-16.3,68-17.61,23-38.25,12.32-68.11,35.6-30.59,23.84-19.7,43.47-47.54,69.82-40.44,38.28-94,25.85-96.55,43.07-2.15,14.82,36,34.93,68.33,43.08,64.11,16.15,120-11,136.66-19.31,46-23.13,38.09-38.1,73.19-55.73,58.78-29.53,98.95,3.33,232.82,6.71,72.49,1.84,109.15,2.25,129.23-22.28,18.34-22.4,8.7-47-2.3-152.89-5.24-50.4-7.13-101.11-11-151.64-10.92-142.93-11.26-155.51-1.56-175.27C786,1604.32,868.21,1606.89,868.6,1566.68Z" transform="translate(0 211.21)"/><g class="cls-47"><path class="cls-48" d="M222.42,2159.38c27.84-26.35,17-46,47.54-69.82,29.86-23.28,50.5-12.58,68.11-35.6,16.4-21.43,3.09-36.7,16.3-68,12.13-28.75,30.86-33.69,67-65.78,24.12-21.4,55.88-49.57,73.83-87.1,31.16-65.12,9.37-134.65,2-155-23.71-65.37-71.56-99.83-88.9-111.12,1.67-1.8,3.63-3.85,5.74-6,114.26,15.7,180.88,81.72,189.12,101.27,19,45.19-11.11,61.79-11.89,192.12-.37,62.3,6.35,86.9-13.86,112.9-23.12,29.74-49.76,20.53-83.19,59.42-25.68,29.87-21.57,48.81-45.55,61.39-25.79,13.53-42.22-2.24-71.3,4-48.6,10.36-59,66.39-91.11,97.05-24.29,23.18-69.21,39.38-157.79,22-2-3-3-5.9-2.64-8.63C128.37,2185.23,182,2197.66,222.42,2159.38Z" transform="translate(0 211.21)"/></g><path class="cls-49" d="M568.54,1697.4c12.14,25.79-43.67,85.86-105.7,114.39-12.64,5.81-103.41,47.55-143.86,7.42-33.43-33.17-11.85-101.74-4.15-126.22,37.82-120.2,154-181.35,202.63-203.41,36.33,90.83,14.93,131.3,6.51,143.94-8.79,13.2-33.34,40.93-59.42,65.36-18.34,17.18-29.76,25.55-28.22,28.23,1.91,3.33,23.41-3,106.91-43.61C552.92,1685.07,564.39,1688.59,568.54,1697.4Z" transform="translate(0 211.21)"/><path class="cls-50" d="M917.91,1549.21l-41,204a16.74,16.74,0,0,1-12.9,13.08l-305.48,65.56a16.74,16.74,0,0,1-20.2-17.67l16.12-207.5a16.72,16.72,0,0,1,12.67-15c48.46-12,235-56.75,333.35-62.57A16.73,16.73,0,0,1,917.91,1549.21Z" transform="translate(0 211.21)"/><path class="cls-51" d="M613.22,1400.2s-5.77,46.07-22.77,56.62-44.49,24.34-47.51,28.08,105.32,15.39,159-11.71h0c-17.7-3.69-22.51-5-22.51-5a99.56,99.56,0,0,1-22.74-9,77.27,77.27,0,0,1-25-23.12l.19-25.51Z" transform="translate(0 211.21)"/><path class="cls-52" d="M610.63,1416.51s11.09,15.22,28.47,8.88c15.57-5.68,6.28-45.88-6.07-50.47-4.12-1.53-11.68-.85-16.74,2.3-3.55,2.22-13,14-7.6,27.23-3.94-1.14-7.4-.1-8.27,1.85-1.1,2.47,2.23,5.83,3,6.59A13.19,13.19,0,0,0,610.63,1416.51Z" transform="translate(0 211.21)"/><path class="cls-53" d="M642.81,1725.62c32.81-9.25,60,13.72,86.16-4.46,26.77-18.62,9.3-50.42,37.13-81.7,29.77-33.44,67.52-17.06,95.07-47.53,10.23-11.32,19.43-29.75,19.57-61.18,6.9-.67,13.51-1.2,19.76-1.57a16.73,16.73,0,0,1,17.41,20l-41,204a16.72,16.72,0,0,1-12.9,13.07l-293.58,63C591.19,1756.59,618.85,1732.37,642.81,1725.62Z" transform="translate(0 211.21)"/><path class="cls-54" d="M898.47,1657.75s19.49-18,21.61-38.93-12.59-37.67-26.83-41.93-21.85,2-12.29,22.62S905.69,1633.49,898.47,1657.75Z" transform="translate(0 211.21)"/></g></g></g></svg>