<?xml version="1.0" encoding="utf-8"?>
<!-- Generator: Adobe Illustrator 27.5.0, SVG Export Plug-In . SVG Version: 6.00 Build 0)  -->
<svg version="1.1" xmlns="http://www.w3.org/2000/svg" xmlns:xlink="http://www.w3.org/1999/xlink" x="0px" y="0px"
	 viewBox="0 0 500 500" style="enable-background:new 0 0 500 500;" xml:space="preserve">
<g id="Background_Complete">
	<g>
		<rect y="382.398" style="fill:#EBEBEB;" width="500" height="0.25"/>
		<rect x="416.779" y="398.494" style="fill:#EBEBEB;" width="33.122" height="0.25"/>
		<rect x="322.527" y="401.208" style="fill:#EBEBEB;" width="8.693" height="0.25"/>
		<rect x="396.586" y="389.208" style="fill:#EBEBEB;" width="19.192" height="0.25"/>
		<rect x="52.459" y="390.888" style="fill:#EBEBEB;" width="43.193" height="0.25"/>
		<rect x="104.556" y="390.888" style="fill:#EBEBEB;" width="6.333" height="0.25"/>
		<rect x="131.471" y="395.111" style="fill:#EBEBEB;" width="93.676" height="0.25"/>
		<path style="fill:#EBEBEB;" d="M237.014,337.8H43.915c-3.147,0-5.708-2.561-5.708-5.708V60.66c0-3.147,2.561-5.708,5.708-5.708
			h193.099c3.146,0,5.707,2.561,5.707,5.708v271.432C242.721,335.239,240.16,337.8,237.014,337.8z M43.915,55.203
			c-3.01,0-5.458,2.448-5.458,5.458v271.432c0,3.01,2.448,5.458,5.458,5.458h193.099c3.009,0,5.457-2.448,5.457-5.458V60.66
			c0-3.009-2.448-5.458-5.457-5.458H43.915z"/>
		<path style="fill:#EBEBEB;" d="M453.31,337.8H260.212c-3.147,0-5.707-2.561-5.707-5.708V60.66c0-3.147,2.561-5.708,5.707-5.708
			H453.31c3.148,0,5.708,2.561,5.708,5.708v271.432C459.019,335.239,456.458,337.8,453.31,337.8z M260.212,55.203
			c-3.009,0-5.457,2.448-5.457,5.458v271.432c0,3.01,2.448,5.458,5.457,5.458H453.31c3.01,0,5.458-2.448,5.458-5.458V60.66
			c0-3.009-2.448-5.458-5.458-5.458H260.212z"/>
	</g>
	<g>
		<g>
			<g>
				
					<rect x="258.105" y="123.831" transform="matrix(-1 -1.224647e-16 1.224647e-16 -1 587.5813 452.198)" style="fill:#FAFAFA;" width="71.372" height="204.536"/>
				
					<rect x="256.457" y="121.055" transform="matrix(-1 -1.224647e-16 1.224647e-16 -1 587.5812 252.1471)" style="fill:#F0F0F0;" width="74.666" height="10.037"/>
				<g>
					
						<rect x="256.457" y="132.204" transform="matrix(-1 -1.224647e-16 1.224647e-16 -1 587.5812 269.4265)" style="fill:#F0F0F0;" width="74.666" height="5.018"/>
					
						<rect x="256.457" y="139.652" transform="matrix(-1 -1.224647e-16 1.224647e-16 -1 587.5812 284.3229)" style="fill:#F0F0F0;" width="74.666" height="5.018"/>
					
						<rect x="256.457" y="147.1" transform="matrix(-1 -1.224647e-16 1.224647e-16 -1 587.5812 299.2194)" style="fill:#F0F0F0;" width="74.666" height="5.019"/>
					
						<rect x="256.457" y="154.549" transform="matrix(-1 -1.224647e-16 1.224647e-16 -1 587.5812 314.1159)" style="fill:#F0F0F0;" width="74.666" height="5.018"/>
					
						<rect x="256.457" y="161.997" transform="matrix(-1 -1.224647e-16 1.224647e-16 -1 587.5812 329.0123)" style="fill:#F0F0F0;" width="74.666" height="5.018"/>
					
						<rect x="256.457" y="169.445" transform="matrix(-1 -1.224647e-16 1.224647e-16 -1 587.5812 343.9088)" style="fill:#F0F0F0;" width="74.666" height="5.019"/>
					
						<rect x="256.457" y="176.893" transform="matrix(-1 -1.224647e-16 1.224647e-16 -1 587.5812 358.8052)" style="fill:#F0F0F0;" width="74.666" height="5.019"/>
					
						<rect x="256.457" y="184.342" transform="matrix(-1 -1.224647e-16 1.224647e-16 -1 587.5812 373.7017)" style="fill:#F0F0F0;" width="74.666" height="5.018"/>
					
						<rect x="256.457" y="191.79" transform="matrix(-1 -1.224647e-16 1.224647e-16 -1 587.5812 388.5982)" style="fill:#F0F0F0;" width="74.666" height="5.019"/>
					
						<rect x="256.457" y="199.238" transform="matrix(-1 -1.224647e-16 1.224647e-16 -1 587.5812 403.4946)" style="fill:#F0F0F0;" width="74.666" height="5.019"/>
					
						<rect x="256.457" y="206.686" transform="matrix(-1 -1.224647e-16 1.224647e-16 -1 587.5812 418.3911)" style="fill:#F0F0F0;" width="74.666" height="5.018"/>
					
						<rect x="256.457" y="214.135" transform="matrix(-1 -1.224647e-16 1.224647e-16 -1 587.5812 433.2875)" style="fill:#F0F0F0;" width="74.666" height="5.018"/>
					
						<rect x="256.457" y="221.583" transform="matrix(-1 -1.224647e-16 1.224647e-16 -1 587.5812 448.184)" style="fill:#F0F0F0;" width="74.666" height="5.019"/>
					
						<rect x="256.457" y="229.031" transform="matrix(-1 -1.224647e-16 1.224647e-16 -1 587.5812 463.0805)" style="fill:#F0F0F0;" width="74.666" height="5.018"/>
					
						<rect x="256.457" y="236.479" transform="matrix(-1 -1.224647e-16 1.224647e-16 -1 587.5812 477.977)" style="fill:#F0F0F0;" width="74.666" height="5.018"/>
					
						<rect x="256.457" y="243.927" transform="matrix(-1 -1.224647e-16 1.224647e-16 -1 587.5812 492.8734)" style="fill:#F0F0F0;" width="74.666" height="5.019"/>
					
						<rect x="256.457" y="251.376" transform="matrix(-1 -1.224647e-16 1.224647e-16 -1 587.5812 507.7698)" style="fill:#F0F0F0;" width="74.666" height="5.019"/>
					
						<rect x="256.457" y="258.824" transform="matrix(-1 -1.224647e-16 1.224647e-16 -1 587.5812 522.6664)" style="fill:#F0F0F0;" width="74.666" height="5.019"/>
					
						<rect x="256.457" y="266.272" transform="matrix(-1 -1.224647e-16 1.224647e-16 -1 587.5812 537.5629)" style="fill:#F0F0F0;" width="74.666" height="5.019"/>
					
						<rect x="256.457" y="273.72" transform="matrix(-1 -1.224647e-16 1.224647e-16 -1 587.5812 552.4592)" style="fill:#F0F0F0;" width="74.666" height="5.019"/>
					
						<rect x="256.457" y="281.169" transform="matrix(-1 -1.224647e-16 1.224647e-16 -1 587.5812 567.3557)" style="fill:#F0F0F0;" width="74.666" height="5.018"/>
					
						<rect x="256.457" y="288.617" transform="matrix(-1 -1.224647e-16 1.224647e-16 -1 587.5812 582.2522)" style="fill:#F0F0F0;" width="74.666" height="5.019"/>
					
						<rect x="256.457" y="296.065" transform="matrix(-1 -1.224647e-16 1.224647e-16 -1 587.5812 597.1487)" style="fill:#F0F0F0;" width="74.666" height="5.019"/>
					
						<rect x="256.457" y="303.513" transform="matrix(-1 -1.224647e-16 1.224647e-16 -1 587.5812 612.0451)" style="fill:#F0F0F0;" width="74.666" height="5.018"/>
					
						<rect x="256.457" y="310.962" transform="matrix(-1 -1.224647e-16 1.224647e-16 -1 587.5812 626.9416)" style="fill:#F0F0F0;" width="74.666" height="5.018"/>
					
						<rect x="256.457" y="318.41" transform="matrix(-1 -1.224647e-16 1.224647e-16 -1 587.5812 641.838)" style="fill:#F0F0F0;" width="74.666" height="5.019"/>
					
						<rect x="256.457" y="325.858" transform="matrix(-1 -1.224647e-16 1.224647e-16 -1 587.5812 656.7344)" style="fill:#F0F0F0;" width="74.666" height="5.019"/>
				</g>
			</g>
			<g>
				
					<rect x="347.311" y="123.831" transform="matrix(-1 -1.224647e-16 1.224647e-16 -1 765.9934 452.198)" style="fill:#FAFAFA;" width="71.372" height="204.536"/>
				
					<rect x="345.664" y="121.055" transform="matrix(-1 -1.224647e-16 1.224647e-16 -1 765.9934 252.1471)" style="fill:#F0F0F0;" width="74.666" height="10.037"/>
				<g>
					
						<rect x="345.664" y="132.204" transform="matrix(-1 -1.224647e-16 1.224647e-16 -1 765.9934 269.4265)" style="fill:#F0F0F0;" width="74.666" height="5.018"/>
					
						<rect x="345.664" y="139.652" transform="matrix(-1 -1.224647e-16 1.224647e-16 -1 765.9934 284.3229)" style="fill:#F0F0F0;" width="74.666" height="5.018"/>
					
						<rect x="345.664" y="147.1" transform="matrix(-1 -1.224647e-16 1.224647e-16 -1 765.9934 299.2194)" style="fill:#F0F0F0;" width="74.666" height="5.019"/>
					
						<rect x="345.664" y="154.549" transform="matrix(-1 -1.224647e-16 1.224647e-16 -1 765.9934 314.1159)" style="fill:#F0F0F0;" width="74.666" height="5.018"/>
					
						<rect x="345.664" y="161.997" transform="matrix(-1 -1.224647e-16 1.224647e-16 -1 765.9934 329.0123)" style="fill:#F0F0F0;" width="74.666" height="5.018"/>
					
						<rect x="345.664" y="169.445" transform="matrix(-1 -1.224647e-16 1.224647e-16 -1 765.9934 343.9088)" style="fill:#F0F0F0;" width="74.666" height="5.019"/>
					
						<rect x="345.664" y="176.893" transform="matrix(-1 -1.224647e-16 1.224647e-16 -1 765.9934 358.8052)" style="fill:#F0F0F0;" width="74.666" height="5.019"/>
					
						<rect x="345.664" y="184.342" transform="matrix(-1 -1.224647e-16 1.224647e-16 -1 765.9934 373.7017)" style="fill:#F0F0F0;" width="74.666" height="5.018"/>
					
						<rect x="345.664" y="191.79" transform="matrix(-1 -1.224647e-16 1.224647e-16 -1 765.9934 388.5982)" style="fill:#F0F0F0;" width="74.666" height="5.019"/>
					
						<rect x="345.664" y="199.238" transform="matrix(-1 -1.224647e-16 1.224647e-16 -1 765.9934 403.4946)" style="fill:#F0F0F0;" width="74.666" height="5.019"/>
					
						<rect x="345.664" y="206.686" transform="matrix(-1 -1.224647e-16 1.224647e-16 -1 765.9934 418.3911)" style="fill:#F0F0F0;" width="74.666" height="5.018"/>
					
						<rect x="345.664" y="214.135" transform="matrix(-1 -1.224647e-16 1.224647e-16 -1 765.9934 433.2875)" style="fill:#F0F0F0;" width="74.666" height="5.018"/>
					
						<rect x="345.664" y="221.583" transform="matrix(-1 -1.224647e-16 1.224647e-16 -1 765.9934 448.184)" style="fill:#F0F0F0;" width="74.666" height="5.019"/>
					
						<rect x="345.664" y="229.031" transform="matrix(-1 -1.224647e-16 1.224647e-16 -1 765.9934 463.0805)" style="fill:#F0F0F0;" width="74.666" height="5.018"/>
					
						<rect x="345.664" y="236.479" transform="matrix(-1 -1.224647e-16 1.224647e-16 -1 765.9934 477.977)" style="fill:#F0F0F0;" width="74.666" height="5.018"/>
					
						<rect x="345.664" y="243.927" transform="matrix(-1 -1.224647e-16 1.224647e-16 -1 765.9934 492.8734)" style="fill:#F0F0F0;" width="74.666" height="5.019"/>
					
						<rect x="345.664" y="251.376" transform="matrix(-1 -1.224647e-16 1.224647e-16 -1 765.9934 507.7698)" style="fill:#F0F0F0;" width="74.666" height="5.019"/>
					
						<rect x="345.664" y="258.824" transform="matrix(-1 -1.224647e-16 1.224647e-16 -1 765.9934 522.6664)" style="fill:#F0F0F0;" width="74.666" height="5.019"/>
					
						<rect x="345.664" y="266.272" transform="matrix(-1 -1.224647e-16 1.224647e-16 -1 765.9934 537.5629)" style="fill:#F0F0F0;" width="74.666" height="5.019"/>
					
						<rect x="345.664" y="273.72" transform="matrix(-1 -1.224647e-16 1.224647e-16 -1 765.9934 552.4592)" style="fill:#F0F0F0;" width="74.666" height="5.019"/>
					
						<rect x="345.664" y="281.169" transform="matrix(-1 -1.224647e-16 1.224647e-16 -1 765.9934 567.3557)" style="fill:#F0F0F0;" width="74.666" height="5.018"/>
					
						<rect x="345.664" y="288.617" transform="matrix(-1 -1.224647e-16 1.224647e-16 -1 765.9934 582.2522)" style="fill:#F0F0F0;" width="74.666" height="5.019"/>
					
						<rect x="345.664" y="296.065" transform="matrix(-1 -1.224647e-16 1.224647e-16 -1 765.9934 597.1487)" style="fill:#F0F0F0;" width="74.666" height="5.019"/>
					
						<rect x="345.664" y="303.513" transform="matrix(-1 -1.224647e-16 1.224647e-16 -1 765.9934 612.0451)" style="fill:#F0F0F0;" width="74.666" height="5.018"/>
					
						<rect x="345.664" y="310.962" transform="matrix(-1 -1.224647e-16 1.224647e-16 -1 765.9934 626.9416)" style="fill:#F0F0F0;" width="74.666" height="5.018"/>
					
						<rect x="345.664" y="318.41" transform="matrix(-1 -1.224647e-16 1.224647e-16 -1 765.9934 641.838)" style="fill:#F0F0F0;" width="74.666" height="5.019"/>
					
						<rect x="345.664" y="325.858" transform="matrix(-1 -1.224647e-16 1.224647e-16 -1 765.9934 656.7344)" style="fill:#F0F0F0;" width="74.666" height="5.019"/>
				</g>
			</g>
			<g>
				
					<rect x="168.898" y="125.085" transform="matrix(-1 -1.224647e-16 1.224647e-16 -1 409.1691 454.7073)" style="fill:#FAFAFA;" width="71.372" height="204.536"/>
				
					<rect x="167.251" y="122.31" transform="matrix(-1 -1.224647e-16 1.224647e-16 -1 409.169 254.6563)" style="fill:#F0F0F0;" width="74.666" height="10.037"/>
				<g>
					
						<rect x="167.251" y="133.459" transform="matrix(-1 -1.224647e-16 1.224647e-16 -1 409.169 267.8404)" style="fill:#F0F0F0;" width="74.666" height="0.923"/>
					
						<rect x="167.251" y="135.554" transform="matrix(-1 -1.224647e-16 1.224647e-16 -1 409.169 272.0317)" style="fill:#F0F0F0;" width="74.666" height="0.923"/>
					
						<rect x="167.251" y="137.65" transform="matrix(-1 -1.224647e-16 1.224647e-16 -1 409.169 276.2229)" style="fill:#F0F0F0;" width="74.666" height="0.923"/>
					
						<rect x="167.251" y="139.745" transform="matrix(-1 -1.224647e-16 1.224647e-16 -1 409.169 280.4142)" style="fill:#F0F0F0;" width="74.666" height="0.923"/>
					
						<rect x="167.251" y="141.841" transform="matrix(-1 -1.224647e-16 1.224647e-16 -1 409.169 284.6054)" style="fill:#F0F0F0;" width="74.666" height="0.923"/>
					
						<rect x="167.251" y="143.937" transform="matrix(-1 -1.224647e-16 1.224647e-16 -1 409.169 288.7966)" style="fill:#F0F0F0;" width="74.666" height="0.923"/>
					
						<rect x="167.251" y="146.032" transform="matrix(-1 -1.224647e-16 1.224647e-16 -1 409.169 292.9878)" style="fill:#F0F0F0;" width="74.666" height="0.923"/>
					
						<rect x="167.251" y="148.128" transform="matrix(-1 -1.224647e-16 1.224647e-16 -1 409.169 297.1791)" style="fill:#F0F0F0;" width="74.666" height="0.923"/>
					
						<rect x="167.251" y="150.223" transform="matrix(-1 -1.224647e-16 1.224647e-16 -1 409.169 301.3703)" style="fill:#F0F0F0;" width="74.666" height="0.923"/>
					
						<rect x="167.251" y="152.319" transform="matrix(-1 -1.224647e-16 1.224647e-16 -1 409.169 305.5616)" style="fill:#F0F0F0;" width="74.666" height="0.923"/>
					
						<rect x="167.251" y="154.415" transform="matrix(-1 -1.224647e-16 1.224647e-16 -1 409.169 309.7528)" style="fill:#F0F0F0;" width="74.666" height="0.923"/>
					
						<rect x="167.251" y="156.51" transform="matrix(-1 -1.224647e-16 1.224647e-16 -1 409.169 313.944)" style="fill:#F0F0F0;" width="74.666" height="0.923"/>
					
						<rect x="167.251" y="158.606" transform="matrix(-1 -1.224647e-16 1.224647e-16 -1 409.169 318.1353)" style="fill:#F0F0F0;" width="74.666" height="0.923"/>
					
						<rect x="167.251" y="160.702" transform="matrix(-1 -1.224647e-16 1.224647e-16 -1 409.169 322.3265)" style="fill:#F0F0F0;" width="74.666" height="0.923"/>
					
						<rect x="167.251" y="162.797" transform="matrix(-1 -1.224647e-16 1.224647e-16 -1 409.169 326.5177)" style="fill:#F0F0F0;" width="74.666" height="0.923"/>
					
						<rect x="167.251" y="164.893" transform="matrix(-1 -1.224647e-16 1.224647e-16 -1 409.169 330.709)" style="fill:#F0F0F0;" width="74.666" height="0.923"/>
					
						<rect x="167.251" y="166.988" transform="matrix(-1 -1.224647e-16 1.224647e-16 -1 409.169 334.9002)" style="fill:#F0F0F0;" width="74.666" height="0.923"/>
					
						<rect x="167.251" y="169.084" transform="matrix(-1 -1.224647e-16 1.224647e-16 -1 409.169 339.0914)" style="fill:#F0F0F0;" width="74.666" height="0.923"/>
				</g>
			</g>
			<g>
				
					<rect x="79.692" y="125.085" transform="matrix(-1 -1.224647e-16 1.224647e-16 -1 230.7569 454.7073)" style="fill:#FAFAFA;" width="71.372" height="204.536"/>
				
					<rect x="78.045" y="122.31" transform="matrix(-1 -1.224647e-16 1.224647e-16 -1 230.7569 254.6563)" style="fill:#F0F0F0;" width="74.666" height="10.037"/>
				<g>
					
						<rect x="78.045" y="133.459" transform="matrix(-1 -1.224647e-16 1.224647e-16 -1 230.7569 267.8404)" style="fill:#F0F0F0;" width="74.666" height="0.923"/>
					
						<rect x="78.045" y="135.554" transform="matrix(-1 -1.224647e-16 1.224647e-16 -1 230.7569 272.0317)" style="fill:#F0F0F0;" width="74.666" height="0.923"/>
					
						<rect x="78.045" y="137.65" transform="matrix(-1 -1.224647e-16 1.224647e-16 -1 230.7569 276.2229)" style="fill:#F0F0F0;" width="74.666" height="0.923"/>
					
						<rect x="78.045" y="139.745" transform="matrix(-1 -1.224647e-16 1.224647e-16 -1 230.7569 280.4142)" style="fill:#F0F0F0;" width="74.666" height="0.923"/>
					
						<rect x="78.045" y="141.841" transform="matrix(-1 -1.224647e-16 1.224647e-16 -1 230.7569 284.6054)" style="fill:#F0F0F0;" width="74.666" height="0.923"/>
					
						<rect x="78.045" y="143.937" transform="matrix(-1 -1.224647e-16 1.224647e-16 -1 230.7569 288.7966)" style="fill:#F0F0F0;" width="74.666" height="0.923"/>
					
						<rect x="78.045" y="146.032" transform="matrix(-1 -1.224647e-16 1.224647e-16 -1 230.7569 292.9878)" style="fill:#F0F0F0;" width="74.666" height="0.923"/>
					
						<rect x="78.045" y="148.128" transform="matrix(-1 -1.224647e-16 1.224647e-16 -1 230.7569 297.1791)" style="fill:#F0F0F0;" width="74.666" height="0.923"/>
					
						<rect x="78.045" y="150.223" transform="matrix(-1 -1.224647e-16 1.224647e-16 -1 230.7569 301.3703)" style="fill:#F0F0F0;" width="74.666" height="0.923"/>
					
						<rect x="78.045" y="152.319" transform="matrix(-1 -1.224647e-16 1.224647e-16 -1 230.7569 305.5616)" style="fill:#F0F0F0;" width="74.666" height="0.923"/>
					
						<rect x="78.045" y="154.415" transform="matrix(-1 -1.224647e-16 1.224647e-16 -1 230.7569 309.7528)" style="fill:#F0F0F0;" width="74.666" height="0.923"/>
					
						<rect x="78.045" y="156.51" transform="matrix(-1 -1.224647e-16 1.224647e-16 -1 230.7569 313.944)" style="fill:#F0F0F0;" width="74.666" height="0.923"/>
					
						<rect x="78.045" y="158.606" transform="matrix(-1 -1.224647e-16 1.224647e-16 -1 230.7569 318.1353)" style="fill:#F0F0F0;" width="74.666" height="0.923"/>
					
						<rect x="78.045" y="160.702" transform="matrix(-1 -1.224647e-16 1.224647e-16 -1 230.7569 322.3265)" style="fill:#F0F0F0;" width="74.666" height="0.923"/>
					
						<rect x="78.045" y="162.797" transform="matrix(-1 -1.224647e-16 1.224647e-16 -1 230.7569 326.5177)" style="fill:#F0F0F0;" width="74.666" height="0.923"/>
					
						<rect x="78.045" y="164.893" transform="matrix(-1 -1.224647e-16 1.224647e-16 -1 230.7569 330.709)" style="fill:#F0F0F0;" width="74.666" height="0.923"/>
					
						<rect x="78.045" y="166.988" transform="matrix(-1 -1.224647e-16 1.224647e-16 -1 230.7569 334.9002)" style="fill:#F0F0F0;" width="74.666" height="0.923"/>
					
						<rect x="78.045" y="169.084" transform="matrix(-1 -1.224647e-16 1.224647e-16 -1 230.7569 339.0914)" style="fill:#F0F0F0;" width="74.666" height="0.923"/>
				</g>
			</g>
		</g>
		<g>
			
				<ellipse transform="matrix(0.2298 -0.9732 0.9732 0.2298 101.096 314.4138)" style="fill:#F0F0F0;" cx="249.188" cy="93.337" rx="15.169" ry="15.169"/>
			
				<ellipse transform="matrix(0.1602 -0.9871 0.9871 0.1602 117.1406 324.3557)" style="fill:#FAFAFA;" cx="249.188" cy="93.337" rx="12.898" ry="12.898"/>
			
				<polyline style="fill:none;stroke:#E0E0E0;stroke-width:2;stroke-linecap:round;stroke-linejoin:round;stroke-miterlimit:10;" points="
				248.579,84.489 248.579,93.505 242.604,90.124 			"/>
		</g>
	</g>
</g>
<g id="Background_Simple" style="display:none;">
	<g style="display:inline;">
		<path style="fill:#407BFF;" d="M89.635,106.297c27.919-59.449,127.059-51.062,165.317-9.255
			c38.258,41.806,50.696,68.599,85.208,52.983c34.512-15.616,78.518-11.44,81.042,38.164s-37.913,108.263-102.09,125.615
			c-64.177,17.352-64.161,78.759-149.1,66.368c-46.31-6.756-47.365-56.86-40.825-98.301S57.257,175.24,89.635,106.297z"/>
		<path style="opacity:0.9;fill:#FFFFFF;" d="M89.635,106.297c27.919-59.449,127.059-51.062,165.317-9.255
			c38.258,41.806,50.696,68.599,85.208,52.983c34.512-15.616,78.518-11.44,81.042,38.164s-37.913,108.263-102.09,125.615
			c-64.177,17.352-64.161,78.759-149.1,66.368c-46.31-6.756-47.365-56.86-40.825-98.301S57.257,175.24,89.635,106.297z"/>
	</g>
</g>
<g id="Shadow_1_">
	<ellipse id="_x3C_Path_x3E__359_" style="fill:#F5F5F5;" cx="250" cy="416.238" rx="193.889" ry="11.323"/>
</g>
<g id="Plant">
	<g>
		<g>
			<path style="fill:#407BFF;" d="M264.043,371.345c0,0,7.753-9.228,12.715-4.924c4.962,4.304,2.452,13.433-3.271,13.727
				c-5.723,0.294-9.444-2.885-9.444-2.885V371.345z"/>
			<path style="opacity:0.2;fill:#FFFFFF;enable-background:new    ;" d="M264.043,371.345c0,0,7.753-9.228,12.715-4.924
				c4.962,4.304,2.452,13.433-3.271,13.727c-5.723,0.294-9.444-2.885-9.444-2.885V371.345z"/>
			<path style="fill:#407BFF;" d="M232.411,347.942c0,0-6.513-6.822-10.544-5.665c-4.032,1.157-3.612,17.455,8.893,10.856
				L232.411,347.942z"/>
			<path style="opacity:0.3;fill:#FFFFFF;enable-background:new    ;" d="M232.411,347.942c0,0-6.513-6.822-10.544-5.665
				c-4.032,1.157-3.612,17.455,8.893,10.856L232.411,347.942z"/>
			<path style="fill:#407BFF;" d="M255.67,398.835c0,0,21.399-29.274,4.032-35.205c-17.367-5.93-20.468,23.553-15.506,31.76
				C249.157,403.598,255.67,398.835,255.67,398.835z"/>
			<path style="fill:#407BFF;" d="M245.746,338.9c0,0-13.274-30.82,6.388-31.751c19.662-0.93,21.804,30.56-0.821,35.128
				L245.746,338.9z"/>
			<path style="opacity:0.3;fill:#FFFFFF;enable-background:new    ;" d="M255.67,398.835c0,0,21.399-29.274,4.032-35.205
				c-17.367-5.93-20.468,23.553-15.506,31.76C249.157,403.598,255.67,398.835,255.67,398.835z"/>
			<path style="opacity:0.3;fill:#FFFFFF;enable-background:new    ;" d="M245.746,338.9c0,0-13.274-30.82,6.388-31.751
				c19.662-0.93,21.804,30.56-0.821,35.128L245.746,338.9z"/>
			<path style="fill:#407BFF;" d="M250.456,364.135c0,0,6.455-27.213-5.95-29.384c-12.405-2.171-24.65,22.417,1.01,34.778
				C245.516,369.528,249.918,366.798,250.456,364.135z"/>
			<path style="opacity:0.2;fill:#FFFFFF;enable-background:new    ;" d="M250.456,364.135c0,0,6.455-27.213-5.95-29.384
				c-12.405-2.171-24.65,22.417,1.01,34.778C245.516,369.528,249.918,366.798,250.456,364.135z"/>
		</g>
		<g>
			<polygon style="fill:#263238;" points="271.073,394.683 235.146,394.683 238.146,417.67 268.073,417.67 			"/>
		</g>
		<g>
			<path style="fill:#407BFF;" d="M252.387,336.698c0.804-0.835,1.584-1.682,2.291-2.589c0.738-0.878,1.428-1.794,2.061-2.745
				c1.269-1.896,2.385-3.884,3.21-5.989c0.86-2.096,1.284-4.331,1.442-6.578l0.035-1.7c-0.048-0.564-0.132-1.126-0.192-1.693
				c-0.03-0.284-0.047-0.572-0.087-0.855l-0.202-0.834c-0.139-0.556-0.268-1.119-0.39-1.69c0.919,2.109,1.644,4.406,1.606,6.784
				c0.023,2.356-0.404,4.735-1.28,6.929c-0.884,2.188-2.071,4.243-3.523,6.078C255.907,333.648,254.275,335.342,252.387,336.698z"/>
		</g>
		<g>
			<path style="fill:#407BFF;" d="M257.097,310.249c-4.227,1.61-7.473,4.989-9.126,9.013l-0.569,1.537
				c-0.174,0.518-0.261,1.064-0.405,1.593c-0.337,1.052-0.346,2.169-0.555,3.257c-0.109,1.101-0.11,2.216-0.167,3.331
				c0.029,1.116,0.091,2.233,0.091,3.367c-0.224-1.102-0.385-2.221-0.581-3.341c-0.043-1.13-0.128-2.268-0.111-3.407
				c0.112-2.275,0.478-4.576,1.373-6.719c0.908-2.122,2.237-4.093,3.996-5.592c0.856-0.773,1.84-1.385,2.836-1.938
				C254.917,310.869,255.978,310.431,257.097,310.249z"/>
		</g>
		<g>
			<path style="fill:#407BFF;" d="M242.06,336.698c-1.353,0.691-2.543,1.653-3.512,2.784c-0.99,1.112-1.769,2.397-2.299,3.773
				c-0.507,1.381-0.897,2.816-0.988,4.297c-0.059,0.369-0.044,0.729-0.037,1.09c0.017,0.361-0.019,0.723,0.038,1.082
				c0.134,0.716,0.2,1.442,0.457,2.136c0.811,2.83,2.436,5.405,4.223,7.808c0.89,1.213,1.868,2.364,2.887,3.479
				c0.996,1.14,2.065,2.214,3.158,3.273c-2.454-1.804-4.681-3.921-6.648-6.274c-1.015-1.153-1.867-2.442-2.696-3.745
				c-0.745-1.354-1.474-2.74-1.884-4.262c-0.263-0.741-0.337-1.537-0.468-2.314c-0.056-0.391-0.019-0.794-0.031-1.191
				c-0.002-0.398-0.013-0.798,0.063-1.18c0.155-1.549,0.577-3.081,1.223-4.499C236.823,340.117,239.174,337.727,242.06,336.698z"/>
		</g>
		<g>
			<path style="fill:#407BFF;" d="M245.746,338.9c-0.162,1.049-0.322,2.091-0.412,3.14c-0.122,1.043-0.191,2.09-0.2,3.13
				c-0.007,1.04,0.031,2.075,0.193,3.079c0.143,1.002,0.416,1.989,0.934,2.788c0.207,0.414,0.617,0.939,0.791,1.448
				c0.241,0.51,0.392,1.043,0.539,1.573c0.249,1.07,0.376,2.149,0.397,3.226c0.05,2.15-0.177,4.283-0.691,6.346
				c0.051-1.06,0.097-2.113,0.071-3.166c0.001-1.049-0.028-2.098-0.148-3.131c-0.229-2.072-0.626-4.089-1.806-5.765
				c-0.612-0.994-0.898-2.103-1.022-3.188c-0.116-1.09-0.143-2.178-0.023-3.247C244.563,342.993,245.018,340.897,245.746,338.9z"/>
		</g>
		<g>
			<path style="fill:#407BFF;" d="M254.475,366.421c-0.501,0.258-0.828,0.721-1.122,1.17c-0.296,0.456-0.514,0.963-0.728,1.463
				c-0.426,1.007-0.766,2.055-1.059,3.115c-0.579,2.123-1.087,4.271-1.526,6.437c-0.464,2.161-0.855,4.339-1.272,6.514
				c-0.208,1.088-0.399,2.18-0.577,3.274c-0.208,1.091-0.376,2.186-0.534,3.29c-0.097-2.234,0.114-4.462,0.35-6.677
				c0.239-2.217,0.608-4.418,1.055-6.606c0.469-2.182,1.008-4.357,1.776-6.468c0.388-1.053,0.815-2.096,1.349-3.093
				c0.291-0.487,0.582-0.973,0.954-1.407C253.499,367.006,253.927,366.58,254.475,366.421z"/>
		</g>
		<g>
			<path style="fill:#407BFF;" d="M260.554,367.366c0.939,1.859,1.518,3.91,1.782,5.999c0.273,2.091,0.181,4.236-0.237,6.315
				c-0.097,0.522-0.21,1.04-0.386,1.542c-0.168,0.503-0.293,1.021-0.497,1.511c-0.441,0.966-0.83,1.954-1.433,2.829
				c-0.506,0.931-1.203,1.73-1.862,2.543c-0.316,0.418-0.731,0.751-1.103,1.117c-0.376,0.362-0.761,0.714-1.148,1.057
				c1.285-1.64,2.537-3.268,3.434-5.1c0.964-1.787,1.625-3.72,2.016-5.697c0.417-1.975,0.549-4.013,0.442-6.047
				C261.435,371.403,261.131,369.362,260.554,367.366z"/>
		</g>
		<g>
			<path style="fill:#407BFF;" d="M227.36,351.265c-0.565,0.243-1.177,0.312-1.783,0.292c-0.609-0.017-1.216-0.161-1.793-0.393
				c-0.573-0.244-1.103-0.618-1.518-1.089c-0.429-0.459-0.688-1.059-0.786-1.652c0.471,0.403,0.852,0.783,1.309,1.073
				c0.45,0.286,0.894,0.556,1.389,0.749C225.152,350.667,226.2,350.929,227.36,351.265z"/>
		</g>
		<g>
			<path style="fill:#407BFF;" d="M228.689,346.768l-1.592-0.738c-0.515-0.22-1.013-0.449-1.523-0.576
				c-0.505-0.148-1.008-0.215-1.528-0.212c-0.524,0.016-1.037,0.173-1.637,0.363c0.331-0.512,0.857-0.948,1.497-1.131
				c0.637-0.187,1.321-0.147,1.941,0.019c0.621,0.18,1.176,0.49,1.658,0.876C227.986,345.755,228.408,346.211,228.689,346.768z"/>
		</g>
		<g>
			<path style="fill:#407BFF;" d="M267.585,372.723c0.358-0.777,0.862-1.469,1.439-2.096c0.577-0.629,1.253-1.175,2.012-1.619
				c0.758-0.427,1.645-0.755,2.579-0.693c0.931,0.035,1.793,0.527,2.29,1.213c-0.783-0.369-1.534-0.529-2.269-0.433
				c-0.731,0.09-1.442,0.387-2.11,0.783C270.166,370.645,268.929,371.695,267.585,372.723z"/>
		</g>
		<g>
			<path style="fill:#407BFF;" d="M267.585,377.263c1.983-0.097,3.907-0.122,5.758-0.435c0.928-0.135,1.814-0.407,2.604-0.825
				c0.788-0.427,1.427-1.092,1.835-2.021c0.02,1.006-0.545,2.042-1.402,2.67c-0.847,0.647-1.867,0.996-2.867,1.161
				c-1.008,0.156-2.02,0.189-3.015,0.093C269.505,377.814,268.521,377.619,267.585,377.263z"/>
		</g>
	</g>
</g>
<g id="Cubicle_2">
	<g>
		<g>
			<rect x="295.017" y="180.538" style="fill:#407BFF;" width="68.411" height="95.605"/>
			<g>
				<polygon style="fill:#407BFF;" points="409.84,276.143 363.428,276.143 363.428,180.538 409.84,197.224 				"/>
				<polygon style="opacity:0.2;fill:#FFFFFF;enable-background:new    ;" points="409.84,276.143 363.428,276.143 363.428,180.538 
					409.84,197.224 				"/>
			</g>
			<g>
				<rect x="295.017" y="263.273" style="fill:#263238;" width="114.824" height="12.87"/>
				<rect x="295.017" y="263.273" style="opacity:0.3;fill:#FFFFFF;enable-background:new    ;" width="114.824" height="12.87"/>
			</g>
		</g>
		<g>
			<polygon style="fill:#407BFF;" points="361.07,248.384 374.282,232.956 396.598,252.122 377.269,266.817 349.385,266.456 
				335.591,244.582 			"/>
			<polygon style="fill:#FFFFFF;enable-background:new    ;" points="361.07,248.384 377.269,266.817 349.385,266.456 
				335.591,244.582 			"/>
			<polygon style="opacity:0.8;fill:#FFFFFF;enable-background:new    ;" points="361.07,248.384 374.282,232.956 396.598,252.122 
				377.269,266.817 			"/>
		</g>
		<g>
			<polygon style="fill:#407BFF;" points="341.429,276.143 295.017,276.143 295.017,180.538 341.429,197.224 			"/>
			<polygon style="opacity:0.6;fill:#FFFFFF;enable-background:new    ;" points="341.429,276.143 295.017,276.143 295.017,180.538 
				341.429,197.224 			"/>
			<polygon style="opacity:0.5;fill:#FFFFFF;enable-background:new    ;" points="315.053,199.541 335.167,243.298 298.508,253.933 
							"/>
			<g>
				<g>
					<path style="fill:#407BFF;" d="M304.997,225.076l1.133-0.736l1.121,6.987l3.189-2.071l0.209,1.303l-4.322,2.808
						L304.997,225.076z"/>
					<path style="fill:#407BFF;" d="M315.324,224.553l-3.651,2.372c0.279,0.839,0.94,1.063,1.75,0.536
						c0.523-0.34,0.896-0.831,1.153-1.508l0.73,0.533c-0.31,0.946-0.907,1.727-1.708,2.247c-1.56,1.014-2.789,0.309-3.091-1.575
						c-0.302-1.883,0.501-3.895,1.886-4.795c1.359-0.883,2.56-0.237,2.877,1.74C315.29,224.222,315.31,224.405,315.324,224.553z
						 M311.507,225.947l2.64-1.715c-0.234-0.855-0.849-1.149-1.563-0.686C311.878,224.006,311.462,224.956,311.507,225.947z"/>
					<path style="fill:#407BFF;" d="M319.56,224.39c-0.215,0.454-0.585,0.851-0.977,1.105c-1.02,0.662-1.721,0.308-1.945-1.09
						l-0.488-3.043l-0.767,0.498l-0.19-1.185l0.767-0.498l-0.232-1.444l1.089-0.708l0.232,1.444l1.246-0.809l0.19,1.184l-1.246,0.81
						l0.483,3.007c0.099,0.616,0.378,0.802,0.797,0.529c0.226-0.146,0.43-0.371,0.567-0.656L319.56,224.39z"/>
					<path style="fill:#407BFF;" d="M320.308,215.56c0.044,0.273,0.042,0.498-0.028,1.145l-0.183,1.976l-0.706,0.459l0.056-2.051
						c-0.265,0.028-0.48-0.172-0.55-0.611c-0.093-0.579,0.149-1.169,0.55-1.429C319.856,214.781,320.217,214.992,320.308,215.56z"/>
					<path style="fill:#407BFF;" d="M321.858,222.582l0.237-1.396c0.469,0.102,1.138-0.046,1.722-0.425
						c0.688-0.447,0.934-0.895,0.864-1.332c-0.194-1.208-2.887,1.797-3.292-0.726c-0.192-1.196,0.476-2.493,1.73-3.309
						c0.618-0.401,1.357-0.659,1.83-0.588l-0.238,1.398c-0.501-0.067-0.964,0.104-1.409,0.393c-0.662,0.431-0.928,0.93-0.862,1.344
						c0.205,1.279,2.898-1.726,3.295,0.749c0.19,1.184-0.488,2.475-1.796,3.324C323.165,222.518,322.341,222.714,321.858,222.582z"
						/>
				</g>
				<g>
					<path style="fill:#407BFF;" d="M309.399,236.502l-1.647,12.436l-1.384,0.899l-4.96-8.143l1.524-0.99l3.794,6.304l1.266-9.591
						L309.399,236.502z"/>
					<path style="fill:#407BFF;" d="M310.409,241.53c-0.488-3.045,0.88-6.418,3.226-7.941c2.346-1.524,4.435-0.413,4.926,2.646
						c0.491,3.058-0.88,6.417-3.226,7.941C312.988,245.699,310.897,244.573,310.409,241.53z M317.145,237.154
						c-0.337-2.104-1.716-2.881-3.241-1.89c-1.524,0.99-2.417,3.242-2.079,5.346c0.337,2.102,1.716,2.879,3.24,1.889
						C316.589,241.508,317.482,239.256,317.145,237.154z"/>
					<path style="fill:#407BFF;" d="M320.913,230.809l-2.508,1.63l-0.259-1.618l6.422-4.173l0.26,1.618l-2.508,1.63l1.392,8.675
						l-1.406,0.913L320.913,230.809z"/>
					<path style="fill:#407BFF;" d="M332.698,230.962l0.257,1.603l-5.676,3.688l-1.652-10.293l5.525-3.59l0.257,1.603l-4.12,2.677
						l0.43,2.677l3.655-2.374l0.253,1.573l-3.655,2.374l0.455,2.838L332.698,230.962z"/>
				</g>
			</g>
		</g>
		<g>
			<polygon style="fill:#263238;" points="411.7,273.92 411.7,417.67 407.07,417.67 407.07,278.65 365.7,278.65 365.7,417.67 
				361.07,417.67 361.07,278.65 343.7,278.65 343.7,417.67 339.07,417.67 339.07,278.65 297.23,278.65 297.23,417.67 292.59,417.67 
				292.59,273.92 			"/>
			<polygon style="opacity:0.3;fill:#FFFFFF;enable-background:new    ;" points="341.43,273.92 341.43,417.67 339.07,417.67 
				339.07,278.65 295.02,278.65 295.02,417.67 292.59,417.67 292.59,273.92 			"/>
			<rect x="361.07" y="278.65" style="opacity:0.3;fill:#FFFFFF;enable-background:new    ;" width="2.358" height="139.02"/>
			<rect x="407.027" y="278.65" style="opacity:0.3;fill:#FFFFFF;enable-background:new    ;" width="2.358" height="139.02"/>
		</g>
	</g>
</g>
<g id="Cubicle_1">
	<g>
		<g>
			
				<rect x="140.862" y="180.538" transform="matrix(-1 -1.224647e-16 1.224647e-16 -1 350.1354 456.6816)" style="fill:#407BFF;" width="68.411" height="95.605"/>
			<g>
				<polygon style="fill:#407BFF;" points="94.45,276.143 140.862,276.143 140.862,180.538 94.45,197.224 				"/>
				<polygon style="opacity:0.2;fill:#FFFFFF;enable-background:new    ;" points="94.45,276.143 140.862,276.143 140.862,180.538 
					94.45,197.224 				"/>
			</g>
			<g>
				
					<rect x="94.45" y="263.273" transform="matrix(-1 -1.224647e-16 1.224647e-16 -1 303.723 539.4164)" style="fill:#263238;" width="114.824" height="12.87"/>
				
					<rect x="94.45" y="263.273" transform="matrix(-1 -1.224647e-16 1.224647e-16 -1 303.723 539.4164)" style="opacity:0.3;fill:#FFFFFF;enable-background:new    ;" width="114.824" height="12.87"/>
			</g>
		</g>
		<g>
			<polygon style="fill:#407BFF;" points="140.665,251.802 167.866,258.698 150.512,271.202 123.205,263.871 			"/>
			<polygon style="opacity:0.8;fill:#FFFFFF;enable-background:new    ;" points="140.665,251.802 167.866,258.698 150.512,271.202 
				123.205,263.871 			"/>
			<polygon style="fill:#FFFFFF;enable-background:new    ;" points="123.205,263.871 140.665,251.802 166.786,247.626 
				145.738,262.3 			"/>
		</g>
		<g>
			<polygon style="fill:#407BFF;" points="162.861,276.143 209.273,276.143 209.273,180.538 162.861,197.224 			"/>
			<polygon style="opacity:0.6;fill:#FFFFFF;enable-background:new    ;" points="162.861,276.143 209.273,276.143 209.273,180.538 
				162.861,197.224 			"/>
			<polygon style="opacity:0.5;fill:#FFFFFF;enable-background:new    ;" points="189.237,199.541 169.123,243.298 205.783,253.933 
							"/>
			<g>
				<g>
					<path style="fill:#407BFF;" d="M175.09,225.076l1.133-0.736l1.121,6.987l3.19-2.071l0.209,1.303l-4.322,2.808L175.09,225.076z"
						/>
					<path style="fill:#407BFF;" d="M185.418,224.553l-3.651,2.372c0.279,0.839,0.94,1.063,1.751,0.536
						c0.523-0.34,0.896-0.831,1.153-1.508l0.73,0.533c-0.31,0.946-0.907,1.727-1.708,2.247c-1.56,1.014-2.789,0.309-3.091-1.575
						c-0.302-1.883,0.501-3.895,1.886-4.795c1.359-0.883,2.56-0.237,2.877,1.74C185.384,224.222,185.403,224.405,185.418,224.553z
						 M181.601,225.947l2.64-1.715c-0.234-0.855-0.849-1.149-1.563-0.686C181.972,224.006,181.556,224.956,181.601,225.947z"/>
					<path style="fill:#407BFF;" d="M189.654,224.39c-0.215,0.454-0.585,0.851-0.977,1.105c-1.02,0.662-1.721,0.308-1.945-1.09
						l-0.488-3.043l-0.767,0.498l-0.19-1.185l0.767-0.498l-0.231-1.444l1.089-0.708l0.232,1.444l1.246-0.809l0.189,1.184
						l-1.246,0.81l0.483,3.007c0.099,0.616,0.379,0.802,0.797,0.529c0.226-0.146,0.43-0.371,0.567-0.656L189.654,224.39z"/>
					<path style="fill:#407BFF;" d="M190.402,215.56c0.044,0.273,0.042,0.498-0.028,1.145l-0.183,1.976l-0.706,0.459l0.056-2.051
						c-0.265,0.028-0.48-0.172-0.55-0.611c-0.093-0.579,0.149-1.169,0.55-1.429C189.95,214.781,190.311,214.992,190.402,215.56z"/>
					<path style="fill:#407BFF;" d="M191.952,222.582l0.237-1.396c0.469,0.102,1.138-0.046,1.722-0.425
						c0.688-0.447,0.934-0.895,0.864-1.332c-0.194-1.208-2.887,1.797-3.292-0.726c-0.192-1.196,0.476-2.493,1.73-3.309
						c0.618-0.401,1.356-0.659,1.83-0.588l-0.238,1.398c-0.501-0.067-0.964,0.104-1.409,0.393c-0.662,0.431-0.928,0.93-0.862,1.344
						c0.205,1.279,2.898-1.726,3.295,0.749c0.19,1.184-0.488,2.475-1.796,3.324C193.259,222.518,192.435,222.714,191.952,222.582z"
						/>
				</g>
				<g>
					<path style="fill:#407BFF;" d="M179.493,236.502l-1.646,12.436l-1.384,0.899l-4.96-8.143l1.524-0.99l3.794,6.304l1.266-9.591
						L179.493,236.502z"/>
					<path style="fill:#407BFF;" d="M180.502,241.53c-0.488-3.045,0.88-6.418,3.226-7.941c2.346-1.524,4.435-0.413,4.926,2.646
						c0.491,3.058-0.88,6.417-3.227,7.941C183.081,245.699,180.991,244.573,180.502,241.53z M187.238,237.154
						c-0.337-2.104-1.716-2.881-3.241-1.89c-1.525,0.99-2.417,3.242-2.079,5.346c0.337,2.102,1.716,2.879,3.24,1.889
						C186.683,241.508,187.576,239.256,187.238,237.154z"/>
					<path style="fill:#407BFF;" d="M191.007,230.809l-2.508,1.63l-0.259-1.618l6.422-4.173l0.26,1.618l-2.508,1.63l1.392,8.675
						l-1.406,0.913L191.007,230.809z"/>
					<path style="fill:#407BFF;" d="M202.792,230.962l0.257,1.603l-5.676,3.688l-1.652-10.293l5.525-3.59l0.257,1.603l-4.12,2.677
						l0.43,2.677l3.655-2.374l0.252,1.573l-3.655,2.374l0.456,2.838L202.792,230.962z"/>
				</g>
			</g>
		</g>
		<g>
			<polygon style="fill:#263238;" points="92.59,273.92 92.59,417.67 97.22,417.67 97.22,278.65 138.59,278.65 138.59,417.67 
				143.22,417.67 143.22,278.65 160.59,278.65 160.59,417.67 165.22,417.67 165.22,278.65 207.06,278.65 207.06,417.67 
				211.7,417.67 211.7,273.92 			"/>
			<polygon style="opacity:0.3;fill:#FFFFFF;enable-background:new    ;" points="162.86,273.92 162.86,417.67 165.22,417.67 
				165.22,278.65 209.27,278.65 209.27,417.67 211.7,417.67 211.7,273.92 			"/>
			<rect x="140.862" y="278.65" style="opacity:0.3;fill:#FFFFFF;enable-background:new    ;" width="2.358" height="139.02"/>
			<rect x="94.905" y="278.65" style="opacity:0.3;fill:#FFFFFF;enable-background:new    ;" width="2.358" height="139.02"/>
		</g>
	</g>
</g>
<g id="Character_2">
	<g>
		<path style="fill:#E4897B;" d="M401.286,311.248l-1.32,3.993l-1.579,4.787l-2.782,8.405l-0.493,1.512l-2.891,8.705l-4.896,14.829
			c-0.677,22.683-13.1,53.369-13.1,53.369l-4.411-1.203c1.613-22.24,5.982-49.075,9.683-69.201c0.585-3.158,1.145-6.132,1.688-8.914
			c0.259-1.32,0.501-2.59,0.743-3.81c0.393-1.988,0.76-3.843,1.103-5.539c0.693-3.442,1.27-6.233,1.688-8.204
			c0.451-2.147,0.71-3.325,0.71-3.325L401.286,311.248z"/>
		<path style="fill:#E4897B;" d="M423.918,306.962l-1.02,6.826l-1.345,9.023l-0.151,1.011l-0.292,1.963l-1.019,6.834l-2.749,18.33
			c3.191,22.465-3.826,54.823-3.826,54.823l-4.553-0.434c-2.381-24.12-2.473-54.154-2.147-75.016
			c0.05-3.233,0.109-6.258,0.175-8.998c0-0.083,0-0.175,0.009-0.259v-0.142c0.134-5.431,0.276-9.75,0.376-12.482
			c0.092-2.147,0.134-3.317,0.134-3.317L423.918,306.962z"/>
		<path style="opacity:0.2;enable-background:new    ;" d="M385.429,306.653l15.857,4.595l-1.32,3.993l-1.579,4.787l-15.356-1.846
			c0.693-3.442,1.27-6.233,1.688-8.204C385.17,307.831,385.429,306.653,385.429,306.653z"/>
		<path style="opacity:0.2;enable-background:new    ;" d="M423.918,306.962l-1.02,6.826l-1.345,9.023L407,321.065v-0.142
			c0.134-5.431,0.276-9.75,0.376-12.482c0.092-2.147,0.134-3.317,0.134-3.317L423.918,306.962z"/>
		<g>
			<path style="fill:#E4897B;" d="M402.856,237.491c0,0-6.396,9.189-8.822,10.787c-2.426,1.598-19.752,0.317-19.752,0.317
				l-0.881,3.773c0,0,17.782,3.253,21.521,1.255c3.739-1.998,13.102-12.357,13.102-12.357L402.856,237.491z"/>
			<path style="opacity:0.2;enable-background:new    ;" d="M402.856,237.491c0,0-6.396,9.189-8.822,10.787
				c-2.426,1.598-19.752,0.317-19.752,0.317l-0.881,3.773c0,0,17.782,3.253,21.521,1.255c3.739-1.998,13.102-12.357,13.102-12.357
				L402.856,237.491z"/>
			<path style="fill:#263238;" d="M379.035,248.063l0.582,6.209c0,0,22.541,2.774,24.962,1.452
				c2.421-1.322,4.514-13.551,4.514-13.551l-10.136-0.881c0,0-8.191,6.051-9.108,6.771
				C388.932,248.783,379.035,248.063,379.035,248.063z"/>
			<path style="opacity:0.3;fill:#FFFFFF;enable-background:new    ;" d="M379.035,248.063l0.582,6.209
				c0,0,22.541,2.774,24.962,1.452c2.421-1.322,4.514-13.551,4.514-13.551l-10.136-0.881c0,0-8.191,6.051-9.108,6.771
				C388.932,248.783,379.035,248.063,379.035,248.063z"/>
		</g>
		<path style="fill:#E4897B;" d="M374.282,248.595c0,0-1.696-1.87-3.408-2.729c-1.712-0.859-4.419-0.982-4.419-0.982l-0.713,4.885
			c0,0,2.307,1.789,3.564,2.316c1.257,0.527,4.096,0.283,4.096,0.283L374.282,248.595z"/>
		<path style="opacity:0.2;enable-background:new    ;" d="M374.282,248.595c0,0-1.696-1.87-3.408-2.729
			c-1.712-0.859-4.419-0.982-4.419-0.982l-0.713,4.885c0,0,2.307,1.789,3.564,2.316c1.257,0.527,4.096,0.283,4.096,0.283
			L374.282,248.595z"/>
		<g>
			<path style="fill:none;stroke:#263238;stroke-width:0.5;stroke-linecap:round;stroke-linejoin:round;stroke-miterlimit:10;" d="
				M378.268,214.438c0,0,1.681-0.361,2.697,0.698"/>
			<path style="fill:#DE5753;" d="M379.762,218.32c0,0-0.708,1.648-1.553,2.653c0,0,0.585,0.78,1.65,0.553L379.762,218.32z"/>
			<g>
				<path style="fill:#263238;" d="M378.577,216.745c0.029,0.498,0.322,0.885,0.654,0.866c0.332-0.02,0.577-0.439,0.548-0.936
					c-0.029-0.498-0.322-0.885-0.654-0.866C378.793,215.829,378.548,216.248,378.577,216.745z"/>
				<path style="fill:#263238;" d="M379.265,215.825l-1.107-0.361C378.158,215.464,378.75,216.343,379.265,215.825z"/>
			</g>
			<path style="fill:#E4897B;" d="M393.389,226.021c-0.053,0.061-0.113,0.123-0.176,0.17c-0.821,0.772-1.781,1.537-2.932,1.972
				c-3.22,1.226-5.554,1.083-7.243-0.217c-0.008,0.001-0.008,0.001-0.008,0.001c-2.387-1.971-3.457-5.898-3.828-10.76
				c-0.177-2.229-0.126-4.197,0.277-5.778c0.005-0.016-0.002-0.072,0.003-0.088c0.022-0.064,0.033-0.152,0.055-0.216
				c0.622-2.217,1.947-3.78,4.284-4.684c0.808-0.311,1.741-0.551,2.807-0.713C396.017,204.314,399.856,219.657,393.389,226.021z"/>
			<path style="opacity:0.2;enable-background:new    ;" d="M393.213,226.191c-0.821,0.772-1.799,1.406-2.951,1.84
				c-3.22,1.226-5.569,0.974-7.262-0.349c1.682,0.136,3.898-0.031,5.898-1.311C390.161,225.569,391.701,225.679,393.213,226.191z"/>
			<path style="fill:#263238;" d="M389.984,202.756c0,0-6.51-0.724-9.639,2.285c-3.654,3.514-4.773,6.782,0.689,10.863
				c0,0,10.091-4.88,13.703-4.638c3.611,0.241,6.264,0.919,6.264,0.919C400.777,205.106,393.301,200.846,389.984,202.756z"/>
			<path style="fill:#E4897B;" d="M388.63,228.544c0,0,4.12,1.896,1.743,6.172l13.583-3.802c0,0-6.441-2.812-6.96-7.348
				C396.996,223.566,389.856,222.988,388.63,228.544z"/>
			<path style="fill:#263238;" d="M379.466,211.347c0,0,0.39,6.666,7.03,8.637c0,0,3.627,6.48,7.591,6.033
				c5.404-0.61,9.094-8.928,6.153-16.476C396.426,199.753,380.978,201.043,379.466,211.347z"/>
			<path style="fill:#E4897B;" d="M383.07,218.527c-0.139-1.029,0.449-2.871,2.081-2.857c1.688,0.015,3.168,3.968-0.774,5.44
				C383.811,221.322,383.361,220.674,383.07,218.527z"/>
		</g>
		<path style="fill:#407BFF;" d="M423.275,263.636c0,0,9.842,22.991,0.646,56.327l-42.285-3.779
			c5.527-27.051,13.015-41.829,13.015-41.829l1.337-13.614L423.275,263.636z"/>
		<path style="fill:#407BFF;" d="M389.806,231.775c0,0,2.944-5.185,10.118-5.735l3.465,3.669L389.806,231.775z"/>
		<g>
			<path style="fill:#263238;" d="M417.198,268.855l-15.121,1.581v-3.434l14.678-1.452
				C416.869,266.385,417.053,267.758,417.198,268.855z"/>
			<polygon style="fill:#263238;" points="400.897,267.12 400.897,270.56 394.64,271.214 394.64,267.738 			"/>
			<polygon style="fill:#263238;" points="417.957,265.432 424.315,264.803 425.112,268.028 418.553,268.714 			"/>
		</g>
		<path style="fill:#E4897B;" d="M353.607,261.183c0,0-2.061-1.459-3.918-1.928c-1.857-0.469-4.526-0.003-4.526-0.003l0.36,4.923
			c0,0,2.639,1.248,3.98,1.491c1.341,0.243,4.06-0.609,4.06-0.609L353.607,261.183z"/>
		<g>
			<path style="fill:#263238;" d="M423.275,263.636l-27.878,3.123l-13.858-31.232c0,0,9.65-8.312,27.516-5.623
				C409.055,229.904,415.456,232.751,423.275,263.636z"/>
			<path style="opacity:0.5;fill:#FFFFFF;enable-background:new    ;" d="M423.275,263.636l-27.879,3.125l-6.583-14.838
				l-2.799-6.291l-4.478-10.101c0,0,9.65-8.313,27.52-5.631C409.056,229.9,415.455,232.749,423.275,263.636z"/>
			<path style="opacity:0.2;enable-background:new    ;" d="M388.812,251.923l-2.799-6.291c0.284-0.577,0.635-1.078,1.061-1.47
				C387.075,244.161,390.141,247.127,388.812,251.923z"/>
		</g>
		<path style="fill:#E4897B;" d="M379.105,244.163c0,0-4.258,10.355-6.281,12.439c-2.023,2.084-19.216,4.58-19.216,4.58
			l-0.044,3.874c0,0,18.065-0.668,21.284-3.427c3.219-2.759,10.12-14.898,10.12-14.898L379.105,244.163z"/>
		<g>
			<path style="fill:#263238;" d="M381.539,235.527c-2.392,2.169-8.034,20.613-8.716,21.076c-0.682,0.462-16.018,4.079-16.018,4.079
				s1.731,5.319,1.725,5.028c-0.006-0.291,15.418-1.186,17.291-1.895c1.873-0.709,12.03-16.794,12.03-16.794
				s-1.121-4.958-2.884-8.042C383.203,235.893,381.539,235.527,381.539,235.527z"/>
			<path style="opacity:0.5;fill:#FFFFFF;enable-background:new    ;" d="M381.539,235.527c-2.392,2.169-8.034,20.613-8.716,21.076
				c-0.682,0.462-16.018,4.079-16.018,4.079s1.731,5.319,1.725,5.028c-0.006-0.291,15.418-1.186,17.291-1.895
				c1.873-0.709,12.03-16.794,12.03-16.794s-1.121-4.958-2.884-8.042C383.203,235.893,381.539,235.527,381.539,235.527z"/>
			<polygon style="fill:#407BFF;" points="355.936,260.741 357.34,259.883 359.489,266.08 357.34,266.08 			"/>
		</g>
		<path style="fill:#263238;" d="M362.607,416.3c0.779-0.63,1.666-1.113,2.619-1.424l0,0c0,0,2.849-2.826,4.22-11.334l3.73-0.973
			c1.297-0.314,2.652,0.215,3.393,1.325c0.104,0.15,0.184,0.316,0.237,0.49c0.192,0.912,0.325,1.835,0.398,2.765
			c0.375,2.88,0.054,9.343,0.054,9.343h-0.674l-0.268-5.866c-0.099-1.991-1.624,0.345-2.06,2.489
			c-0.436,2.144-1.363,4.426-5.728,4.534C363.435,417.747,361.321,417.548,362.607,416.3z"/>
		<path style="fill:#263238;" d="M376.699,403.962c0.245-1.991,1.042-4.521,1.042-4.521l-9.006-0.013c0,0,1.003,3.936,0.176,6.893
			C373.084,405.226,376.699,403.962,376.699,403.962z"/>
		<path style="fill:#263238;" d="M401.039,416.3c0.779-0.63,1.666-1.113,2.619-1.424l0,0c0,0,2.849-2.826,4.22-11.334l3.73-0.973
			c1.297-0.314,2.652,0.215,3.393,1.325c0.104,0.15,0.184,0.316,0.237,0.49c0.192,0.912,0.325,1.835,0.398,2.765
			c0.375,2.88,0.054,9.343,0.054,9.343h-0.674l-0.268-5.866c-0.099-1.991-1.623,0.345-2.06,2.489
			c-0.436,2.144-1.363,4.426-5.728,4.534C401.866,417.747,399.752,417.548,401.039,416.3z"/>
		<path style="fill:#263238;" d="M415.13,403.962c0.245-1.991,1.041-4.521,1.041-4.521l-9.006-0.013c0,0,1.003,3.936,0.176,6.893
			C411.515,405.226,415.13,403.962,415.13,403.962z"/>
		<path style="fill:#263238;" d="M391.78,203.501c0,0,3.175-8.951,11.609-5.388c8.435,3.563,1.89,12.765,4.635,17.79
			c2.745,5.025-1.134,9.641-3.283,8.322c0,0,2.335-0.307,1.676-2.659c-0.659-2.352-4.435-1.573-6.042-8.424
			c-1.607-6.851-4.083-4.041-4.083-4.041L391.78,203.501z"/>
	</g>
</g>
<g id="Character_1">
	<g id="_x3C_Group_x3E__11_">
		<path style="fill:#263238;" d="M130.873,234.079c-2.347,3.193-18.901,0-18.901,0v-4.359l13.43-1.052L130.873,234.079z"/>
		<path style="opacity:0.2;" d="M130.873,234.079c-2.347,3.193-18.901,0-18.901,0v-4.359l13.43-1.052L130.873,234.079z"/>
		<path style="fill:#263238;" d="M83.292,210.666c-3.345,1.717,1.754,18.161,6.853,23.642c5.099,5.482,1.93-12.62,1.93-12.62
			L83.292,210.666z"/>
		<path style="opacity:0.2;" d="M83.292,210.666c-3.345,1.717,1.754,18.161,6.853,23.642c5.099,5.482,1.93-12.62,1.93-12.62
			L83.292,210.666z"/>
		<path style="fill:#9F5B53;" d="M109.456,207.345l0.067,4.92l-3.76-0.454v-4.466c0,0-0.416-0.667-0.86-1.508
			c-0.377-0.696-0.783-1.518-0.986-2.175c-0.455-1.411,4.311-5.558,4.311-5.558s0.3,0.28,0.725,0.706
			c1.034,1.005,2.813,2.823,3.016,3.499C112.259,203.266,109.456,207.345,109.456,207.345z"/>
		<path style="opacity:0.2;" d="M108.953,198.809c-0.522,2.146-1.711,5.587-4.05,7.028c-0.377-0.696-0.783-1.518-0.986-2.175
			c-0.455-1.411,4.311-5.558,4.311-5.558S108.528,198.384,108.953,198.809z"/>
		<polygon style="fill:#9F5B53;" points="118.368,411.322 125.282,412.046 125.631,408.04 126.577,397.137 119.664,396.404 
			118.616,408.449 		"/>
		<polygon style="fill:#9F5B53;" points="83.861,410.444 90.561,410.444 90.621,408.927 90.629,408.739 90.97,399.021 
			90.979,398.825 91.115,395.1 84.406,395.1 		"/>
		<polygon style="opacity:0.2;enable-background:new    ;" points="119.664,396.404 118.616,408.449 125.631,408.04 
			126.577,397.137 		"/>
		<polygon style="opacity:0.2;enable-background:new    ;" points="83.903,409.591 83.912,409.591 90.621,408.739 90.629,408.739 
			90.979,399.362 90.97,399.362 84.253,399.899 83.912,409.297 		"/>
		<path style="fill:#263238;" d="M91.49,410.04h-8.141c-0.275,0.001-0.511,0.192-0.571,0.46l-1.321,5.967
			c-0.113,0.534,0.228,1.059,0.763,1.172c0.072,0.015,0.145,0.022,0.217,0.021c2.634-0.043,4.552-0.205,7.86-0.205
			c2.037,0,8.184,0.213,10.997,0.213c2.813,0,3.18-2.779,2.029-3.035c-5.166-1.125-9.053-2.685-10.707-4.169
			C92.309,410.185,91.906,410.033,91.49,410.04z"/>
		<path style="fill:#263238;" d="M126.015,409.827h-8.141c-0.274,0.001-0.511,0.192-0.571,0.46l-1.321,5.967
			c-0.113,0.534,0.228,1.059,0.763,1.172c0.072,0.015,0.145,0.022,0.218,0.021c2.634-0.043,4.552-0.205,7.86-0.205
			c2.037,0,8.184,0.213,10.997,0.213c2.813,0,3.18-2.779,2.029-3.035c-5.166-1.125-9.053-2.685-10.707-4.168
			C126.833,409.972,126.43,409.82,126.015,409.827z"/>
		<path style="fill:#407BFF;" d="M127.212,407.034h-9.829c0,0,0.801-84.61-9.829-113.185c-0.75,9.445-1.594,19.246-2.421,27.413
			c-0.52,5.055-1.031,9.397-1.517,12.705c-3.094,21.311-10.903,73.92-10.903,73.92h-9.71c0,0,1.151-50.41,2.302-71.355
			c1.27-22.735,1.816-72.71,1.867-76.972h35.564C126.121,277.461,134.799,349.067,127.212,407.034z"/>
		<path style="opacity:0.7;fill:#FFFFFF;enable-background:new    ;" d="M127.212,407.034h-9.829c0,0,0.801-84.61-9.829-113.185
			c-0.75,9.445-1.594,19.246-2.421,27.413c-0.52,5.055-1.031,9.397-1.517,12.705c-3.094,21.311-10.903,73.92-10.903,73.92h-9.71
			c0,0,1.151-50.41,2.302-71.355c1.27-22.735,1.816-72.71,1.867-76.972h35.564C126.121,277.461,134.799,349.067,127.212,407.034z"/>
		<path style="opacity:0.2;enable-background:new    ;" d="M107.555,293.811c-0.75,9.445-1.594,19.265-2.421,27.432
			c-1.21-11.789-2.694-20.195-2.694-20.195s-1.39-1.142-5.209-7.237c-3.819-6.104,0-17.475,0-17.475
			C97.112,286.906,107.555,293.811,107.555,293.811z"/>
		<polygon style="fill:#407BFF;" points="128.314,404.264 127.835,407.034 116.22,407.034 116.22,404.477 		"/>
		<polygon style="fill:#407BFF;" points="93.828,405.329 92.714,407.887 82.974,407.887 82.335,405.329 		"/>
		<g>
			<polygon points="86.959,256.808 86.959,259.995 122.818,259.995 122.397,256.362 			"/>
			<rect x="97.922" y="255.788" style="fill:#407BFF;" width="1.084" height="5.035"/>
			
				<rect x="115.857" y="255.788" transform="matrix(0.9978 -0.0665 0.0665 0.9978 -16.9076 8.3059)" style="fill:#407BFF;" width="1.084" height="5.035"/>
			<rect x="97.922" y="255.788" style="opacity:0.7;fill:#FFFFFF;enable-background:new    ;" width="1.084" height="5.035"/>
			
				<rect x="115.857" y="255.788" transform="matrix(0.9978 -0.0665 0.0665 0.9978 -16.9076 8.3059)" style="opacity:0.7;fill:#FFFFFF;enable-background:new    ;" width="1.084" height="5.035"/>
		</g>
		<g>
			<path style="fill:#2E353A;" d="M110.7,189.74c0.042,0.533-0.213,0.988-0.568,1.015s-0.677-0.382-0.719-0.915
				c-0.042-0.533,0.212-0.988,0.568-1.016C110.337,188.798,110.658,189.207,110.7,189.74z"/>
			<path style="fill:none;stroke:#2E353A;stroke-width:0.5;stroke-linecap:round;stroke-linejoin:round;stroke-miterlimit:10;" d="
				M110.791,186.763c0,0-1.839-0.137-2.764,1.137"/>
			<path style="fill:#A24E3F;" d="M109.409,190.757c0,0,1.258,2.087,2.581,3.281c0,0-0.643,1.158-2.118,1.049L109.409,190.757z"/>
			<path style="fill:#9F5B53;" d="M109.823,197.282c-0.083,0.325-0.176,0.644-0.289,0.948c-0.657,1.84-1.844,3.355-3.316,4.417
				c-0.385,0.281-0.792,0.532-1.213,0.75c-2.227,1.146-4.871,1.361-7.26,0.321c-0.978-0.414-1.924-1.049-2.771-1.917
				c-3.358-3.391-3.268-7.306-3.646-13.934c-0.103-1.426,0.122-2.857,0.677-4.17c1.922-4.631,7.241-6.819,11.863-4.896
				C110.368,181.454,111.259,191.315,109.823,197.282z"/>
			<path style="opacity:0.2;enable-background:new    ;" d="M106.218,202.647c-0.385,0.281-0.792,0.532-1.213,0.75
				c-2.227,1.146-4.871,1.361-7.26,0.321c0.466-1.281,1.184-2.25,1.184-2.25S102.889,200.859,106.218,202.647z"/>
			<path style="fill:#9F5B53;" d="M92.88,211.244c3.265,2.967,11.264,1.87,11.264,1.87s4.993-1.367,3.944-2.927
				c-2.941-0.486-4.365-1.858-4.953-3.615c-0.341-1.023-0.392-2.174-0.298-3.359c0.043-0.622,0.136-1.253,0.247-1.875l-9.888-7.323
				C94.491,198.849,96.077,207.74,92.88,211.244z"/>
			<path style="fill:#263238;" d="M101.981,175.944c0,0,1.753-1.071,4.744,1.749c2.521,2.377-0.019,4.285,1.507,7.335
				c1.526,3.05-0.53,6.052-0.53,6.052s-1.455,3.133-3.986,2.936c0,0-2.064,2.5-1.735,5.085c0.329,2.585-3.381,4.629-8.439,4.563
				c-5.059-0.066-3.035-3.224-3.035-3.224s-1.846-1.909-3.509-5.671c-1.662-3.762-1.437-7.921-1.437-7.921s-0.45-3.868,2.923-7.667
				S99.904,173.471,101.981,175.944z"/>
			<path style="fill:#9F5B53;" d="M102.451,192.574c0.396,1.442,1.189,2.501,2.206,2.945c1.35,0.573,2.236-1.329,2.041-3.322
				c-0.185-1.766-1.099-4.252-2.544-3.924C102.71,188.601,101.981,190.791,102.451,192.574z"/>
		</g>
		<g>
			<path style="fill:#407BFF;" d="M92.075,210.619l1.461-3.766c0,0,9.853-1.901,13.189,3.012
				C110.061,214.778,92.075,210.619,92.075,210.619z"/>
			<path style="opacity:0.6;fill:#FFFFFF;" d="M92.075,210.619l1.461-3.766c0,0,9.853-1.901,13.189,3.012
				C110.061,214.778,92.075,210.619,92.075,210.619z"/>
		</g>
		<path style="fill:#263238;" d="M86.294,257.429c0,0,1.373-12.335-0.667-31.098c-0.532-4.833-1.276-10.083-2.33-15.66
			c0,0,19.334-3.412,32.819,0c0,0,0.561,2.281,1.315,6.167c0.126,0.628,0.261,1.295,0.396,2.001c0.367,1.933,0.754,4.157,1.15,6.612
			c0.01,0.01,0.01,0.01,0.01,0.01c0.019,0.126,0.039,0.251,0.058,0.377c0.435,2.639,0.996,5.674,1.556,8.951
			c1.189,6.854,2.417,14.732,2.591,22.156L86.294,257.429z"/>
		<path style="opacity:0.2;" d="M120.602,234.789c-6.37-5.906-5.665-17.98-5.665-17.98l2.89,2.03
			c0.367,1.933,0.754,4.157,1.15,6.612c0.01,0.01,0.01,0.01,0.01,0.01c0.019,0.126,0.039,0.251,0.058,0.377
			C119.48,228.477,120.041,231.512,120.602,234.789z"/>
		<path style="fill:#263238;" d="M116.12,210.666c5.002,2.099,15.24,17.778,15.417,20.965c0.176,3.187-2.246,4.469-6.835,1.661
			c-4.589-2.808-9.061-13.006-9.699-16.066C114.366,214.168,116.12,210.666,116.12,210.666z"/>
	</g>
</g>
</svg>
